<svg width="165" height="28" viewBox="0 0 165 28" fill="none" xmlns="http://www.w3.org/2000/svg">
<path d="M30.4606 10.6137C30.3537 10.64 30.1221 10.71 29.9617 10.7275C30.2646 10.4387 30.4428 10.0887 30.4428 9.79995C30.3003 9.8437 30.0419 9.93995 29.8103 9.99245C30.2735 9.60745 30.5319 9.15245 30.4161 8.55745C30.2735 8.62745 30.0775 8.7412 29.8726 8.81995C30.2824 8.20745 30.2735 7.66495 30.1043 7.34995C29.9261 7.5162 29.7034 7.7087 29.4718 7.8487C29.6232 7.13995 29.6143 6.68495 29.3114 6.3612C28.9996 6.9387 28.7324 7.36745 28.2958 7.87495C28.3315 7.40245 28.278 6.8162 27.9662 6.5187C27.9662 6.5187 27.8771 7.17495 27.6455 7.38495C27.5921 6.7462 27.3872 6.3962 27.0932 6.05495C27.0932 6.05495 27.0754 6.71995 26.8883 7.1312C26.7279 6.5712 26.4429 6.14245 26.0687 5.7312C26.0954 6.96495 25.748 9.2837 24.7413 10.85C24.6255 11.7775 24.5186 13.1687 22.9864 13.9912C22.7637 13.8425 22.3806 13.6412 21.8283 13.6762C21.6857 12.9762 22.6122 12.3462 23.414 11.8387C24.2247 11.3225 24.5721 10.885 24.5632 10.2025C24.5454 9.44995 24.0287 9.1437 23.4942 9.1262C22.7369 9.0912 22.1222 9.76495 21.9797 10.045C21.757 10.15 21.1156 10.3425 20.8483 10.4125C20.5544 10.4912 20.2247 10.605 20.0109 10.78C20.1357 10.8587 20.492 10.885 20.6256 10.8587C20.884 10.8237 21.7035 10.675 22.4786 10.5787C22.7637 10.7275 23.218 10.9812 22.7369 11.3137C22.0688 11.7337 21.7837 11.8387 20.8483 12.32C19.3695 13.0812 19.8506 14.9975 20.2069 15.1375C20.2069 15.785 20.7949 16.9487 21.1958 17.36C21.3739 18.1737 21.1334 19.3812 20.884 19.8887C20.6791 19.3987 20.3227 18.2525 20.0911 17.5875C20.3316 16.3275 19.9397 15.7675 19.6724 15.5575C19.4052 15.3387 18.9775 15.4 18.6925 15.8375C19.1201 15.7937 19.2626 16.3275 19.2537 16.8875C19.2448 17.5525 19.0666 18.095 18.5945 18.095C18.6301 18.6637 19.2537 18.83 19.5655 18.55C19.619 18.6812 19.8684 19.425 20.1 20.09C20.2426 20.4837 20.3762 20.8512 20.4653 21.0437C20.5633 21.2537 21.2848 21.2887 21.365 21.0437C21.4808 20.72 21.5699 20.475 21.7481 20.09C21.8817 19.8012 22.0777 19.4337 22.3628 18.8912C22.5588 19.2237 22.8171 19.74 22.9596 20.09C23.0309 20.2562 23.0755 20.3875 23.0844 20.4487C23.1467 20.9912 23.1111 22.925 22.9596 24.08C21.3472 23.6512 20.884 24.4212 21.0265 24.9987C21.2581 24.745 21.561 24.78 21.7481 24.9112C21.7035 25.3312 21.8194 25.6375 22.2559 25.7687C22.7191 24.5612 24.385 24.8325 24.5454 24.9287C24.5543 24.6925 24.777 24.115 23.9218 23.9925C23.9574 22.9512 24.0643 21.6737 24.0999 21.4112C24.1356 21.1487 24.1712 20.9825 24.0465 20.5625C24.0109 20.44 23.9574 20.2825 23.9129 20.0987C23.797 19.6787 23.6901 19.1275 23.6812 18.5325C23.8327 18.6812 24.189 18.795 24.4296 18.7425C24.6166 19.53 24.8928 19.3025 25.0353 19.635C25.1066 19.8012 25.1244 19.9675 25.1422 20.1075C25.16 20.2475 25.1868 20.3612 25.258 20.4662C25.8282 20.4837 26.3182 20.3525 26.6656 20.1075C26.7725 20.0375 26.8705 19.95 26.9417 19.8625C26.7992 19.0225 26.5587 18.6112 26.1133 18.1037C25.9974 17.4212 25.6678 16.7912 25.2224 16.2312C25.7836 16.0475 26.3538 15.6012 26.6567 15.2862C26.9239 15.2687 27.2357 15.05 27.2625 14.6125C27.4228 14.595 27.5564 14.5862 27.6812 14.56C27.6633 14.4375 27.6366 14.2625 27.6188 14.1575C27.8237 14.1575 28.0286 14.1487 28.2157 14.1312C28.1622 13.9737 28.082 13.8075 28.0286 13.685C28.2335 13.685 28.4918 13.6675 28.6967 13.6587C28.5898 13.4575 28.5007 13.2737 28.4384 13.0987C28.6789 13.0725 29.0442 13.02 29.347 12.95C29.2491 12.8537 29.1422 12.7487 28.9729 12.5912C29.7568 12.3637 30.1043 11.8212 30.1399 11.585C30.0241 11.585 29.7836 11.6375 29.641 11.62C30.1221 11.34 30.4161 10.99 30.4606 10.6137Z" fill="#1D1D1D"/>
<path d="M14.5411 24.7975C10.1492 23.1875 9.58798 19.6525 9.57016 18.0425C9.57016 18.0425 9.56125 18.0425 9.55234 18.0425C9.56125 17.9988 9.56125 17.9638 9.57016 17.9288C9.57016 17.5788 9.59689 17.3425 9.6058 17.2638C9.59689 17.0363 9.56125 16.8525 9.51671 16.7213C9.5078 16.695 9.48998 16.6688 9.47217 16.6338V18.2963C9.47217 20.16 10.167 21.77 11.5389 23.0738C12.7416 24.22 14.0957 24.7538 14.4787 24.885L14.5411 24.9025L14.6035 24.885C14.9865 24.745 16.3406 24.22 17.5433 23.0738C18.9152 21.77 19.61 20.16 19.61 18.2963V17.99C19.5744 18.0425 19.5388 18.0775 19.5031 18.1213C19.4675 18.9613 19.3072 20.2563 18.737 21.2363C18.0689 22.61 17.0266 23.7388 14.5411 24.7975Z" fill="#1D1D1D"/>
<path d="M25.0619 25.8736C24.8481 25.9349 24.5809 25.9786 24.1889 25.9786H23.6989C22.0152 25.9436 20.287 25.4536 19.2268 24.3861C20.6878 22.9336 18.9685 21.7436 18.042 22.9686C17.748 23.3536 17.5164 23.6249 17.3204 24.0011C17.1601 24.2986 17.2759 24.6049 17.6411 25.0686C17.8371 25.3224 18.336 25.7161 18.7458 25.9786H10.3362C10.737 25.7161 11.2359 25.3224 11.4408 25.0686C11.8061 24.6049 11.9308 24.3074 11.7615 24.0011C11.5566 23.6249 11.325 23.3536 11.0399 22.9686C10.1134 21.7349 8.3941 22.9336 9.8551 24.3861C8.79499 25.4536 7.06674 25.9436 5.38303 25.9786H4.91979C4.52781 25.9786 4.26056 25.9436 4.04675 25.8736C3.69932 25.7949 3.61915 25.9349 3.80622 26.5299C3.93094 26.9149 4.03785 27.5624 4.08239 27.9999H25.0263C25.0708 27.5624 25.1777 26.9149 25.3024 26.5211C25.4895 25.9349 25.4093 25.7861 25.0619 25.8736ZM18.5053 23.0211C18.7814 22.6624 19.1823 22.7586 19.3427 23.0561C19.5208 23.3799 19.2625 23.7736 18.915 24.0886C18.4429 23.5811 18.3894 23.1699 18.5053 23.0211ZM17.8104 24.7099C17.6411 24.4736 17.5788 24.3424 17.6679 24.1149C17.7569 23.8961 17.9351 23.7036 18.1133 23.4324C18.4073 24.5524 20.1266 25.6199 21.4005 25.9786H19.3694C18.8616 25.6899 18.1935 25.2349 17.8104 24.7099ZM9.73038 23.0561C9.89964 22.7586 10.3005 22.6624 10.5678 23.0211C10.6836 23.1786 10.6301 23.5811 10.158 24.0886C9.81056 23.7736 9.55221 23.3799 9.73038 23.0561ZM10.9598 23.4236C11.1468 23.6949 11.325 23.8961 11.4052 24.1061C11.4943 24.3336 11.4408 24.4736 11.2716 24.7011C10.8885 25.2261 10.2203 25.6811 9.69475 25.9611H7.67251C8.94643 25.6199 10.6658 24.5436 10.9598 23.4236ZM24.661 27.6761H4.44764C4.35855 27.0461 4.23383 26.6349 4.12693 26.2936H24.9906C24.8748 26.6349 24.7501 27.0461 24.661 27.6761Z" fill="#1D1D1D"/>
<path d="M20.4653 26.8801C20.4653 26.7051 20.4653 26.6701 20.4653 26.6351C20.4653 26.5914 20.4742 26.5739 20.5098 26.5651C20.5276 26.5651 20.5454 26.5651 20.5543 26.5651C20.5722 26.5651 20.5722 26.5651 20.5722 26.5564C20.5722 26.5476 20.5632 26.5476 20.5454 26.5476C20.5009 26.5476 20.4118 26.5476 20.3851 26.5476C20.3494 26.5476 20.2782 26.5476 20.2247 26.5476C20.2069 26.5476 20.198 26.5476 20.198 26.5564C20.198 26.5651 20.2069 26.5651 20.2158 26.5651C20.2336 26.5651 20.2425 26.5651 20.2604 26.5651C20.296 26.5739 20.3049 26.5914 20.3138 26.6351C20.3138 26.6701 20.3138 26.7051 20.3138 26.8801V27.0901C20.3138 27.1951 20.3138 27.2914 20.3049 27.3439C20.296 27.3789 20.296 27.4051 20.2693 27.4139C20.2604 27.4139 20.2425 27.4139 20.2247 27.4139C20.2069 27.4139 20.2069 27.4226 20.2069 27.4226C20.2069 27.4314 20.2158 27.4314 20.2336 27.4314C20.2782 27.4314 20.3584 27.4314 20.3851 27.4314C20.4831 27.4314 20.5632 27.4401 20.7325 27.4401C20.7949 27.4401 20.8038 27.4314 20.8038 27.4051C20.8127 27.3701 20.8216 27.2826 20.8216 27.2651C20.8216 27.2476 20.8216 27.2476 20.8127 27.2476C20.8038 27.2476 20.8038 27.2564 20.8038 27.2651C20.8038 27.2914 20.786 27.3176 20.7681 27.3351C20.7414 27.3614 20.688 27.3701 20.6256 27.3701C20.5365 27.3701 20.5009 27.3614 20.4831 27.3439C20.4563 27.3176 20.4563 27.2389 20.4563 27.0901V26.8801H20.4653Z" fill="#1D1D1D"/>
<path d="M22.033 27.4488C22.0953 27.4488 22.1665 27.4401 22.2199 27.4051C22.3089 27.3526 22.3356 27.2651 22.3356 27.2038C22.3356 27.0901 22.2822 27.0113 22.1398 26.9063L22.1042 26.8801C22.0063 26.8101 21.9796 26.7663 21.9796 26.7138C21.9796 26.6438 22.033 26.5913 22.122 26.5913C22.2021 26.5913 22.2377 26.6263 22.2555 26.6526C22.2822 26.6788 22.2911 26.7226 22.2911 26.7313C22.2911 26.7488 22.3 26.7488 22.3 26.7488C22.3089 26.7488 22.3089 26.7401 22.3089 26.7138C22.3089 26.6263 22.3178 26.5913 22.3178 26.5738C22.3178 26.5651 22.3089 26.5651 22.3 26.5563C22.2733 26.5476 22.2199 26.5388 22.1398 26.5388C21.9707 26.5388 21.8639 26.6351 21.8639 26.7576C21.8639 26.8538 21.9084 26.9326 22.0419 27.0376L22.0953 27.0813C22.1932 27.1601 22.211 27.2126 22.211 27.2738C22.211 27.3351 22.1576 27.4051 22.0508 27.4051C21.9796 27.4051 21.9084 27.3701 21.8817 27.2826C21.8728 27.2651 21.8728 27.2388 21.8728 27.2213C21.8728 27.2126 21.8728 27.1951 21.8639 27.1951C21.855 27.1951 21.855 27.2126 21.8461 27.2301C21.8461 27.2476 21.8372 27.3176 21.8372 27.3788C21.8372 27.4051 21.8372 27.4138 21.8639 27.4226C21.9084 27.4401 21.9618 27.4488 22.033 27.4488Z" fill="#1D1D1D"/>
<path d="M21.2045 27.0901C21.2045 27.2038 21.2045 27.3001 21.1956 27.3526C21.1956 27.3876 21.1867 27.4051 21.16 27.4138C21.1511 27.4138 21.1333 27.4138 21.1155 27.4138C21.0977 27.4138 21.0977 27.4226 21.0977 27.4226C21.0977 27.4313 21.1066 27.4313 21.1244 27.4313C21.1778 27.4313 21.249 27.4313 21.2757 27.4313C21.3113 27.4313 21.3825 27.4313 21.4626 27.4313C21.4715 27.4313 21.4893 27.4313 21.4893 27.4226C21.4893 27.4138 21.4804 27.4138 21.4715 27.4138C21.4537 27.4138 21.427 27.4138 21.4092 27.4138C21.3736 27.4051 21.3647 27.3876 21.3647 27.3526C21.3558 27.3001 21.3558 27.2126 21.3558 27.0901V26.8801C21.3558 26.7051 21.3558 26.6701 21.3558 26.6351C21.3558 26.5913 21.3647 26.5738 21.4003 26.5651C21.4181 26.5651 21.4181 26.5651 21.4359 26.5651C21.4537 26.5651 21.4537 26.5651 21.4537 26.5476C21.4537 26.5388 21.4448 26.5388 21.427 26.5388C21.3825 26.5388 21.3113 26.5388 21.2846 26.5388C21.249 26.5388 21.1778 26.5388 21.1244 26.5388C21.1066 26.5388 21.0977 26.5388 21.0977 26.5476C21.0977 26.5563 21.1066 26.5651 21.1155 26.5651C21.1333 26.5651 21.1511 26.5651 21.16 26.5651C21.1867 26.5738 21.1956 26.5913 21.2045 26.6351C21.2045 26.6701 21.2045 26.7051 21.2045 26.8801V27.0901Z" fill="#1D1D1D"/>
<path d="M18.1046 27.0901C18.1046 27.1951 18.1046 27.2913 18.0957 27.3438C18.0957 27.3788 18.0868 27.4051 18.06 27.4051C18.0511 27.4051 18.0333 27.4051 18.0155 27.4051C18.0066 27.4051 17.9977 27.4051 17.9977 27.4138C17.9977 27.4226 18.0066 27.4226 18.0244 27.4226C18.0689 27.4226 18.1491 27.4226 18.1758 27.4226C18.2382 27.4226 18.3451 27.4313 18.4342 27.4313C18.6569 27.4313 18.7816 27.3526 18.8351 27.2913C18.9063 27.2213 18.9687 27.1076 18.9687 26.9676C18.9687 26.8276 18.9153 26.7313 18.8529 26.6701C18.7193 26.5388 18.5233 26.5388 18.3718 26.5388C18.3006 26.5388 18.2204 26.5388 18.1848 26.5388C18.1491 26.5388 18.0779 26.5388 18.0155 26.5388C17.9977 26.5388 17.9888 26.5388 17.9888 26.5476C17.9888 26.5563 17.9977 26.5563 18.0066 26.5563C18.0244 26.5563 18.0422 26.5563 18.0511 26.5563C18.0868 26.5651 18.0957 26.5826 18.1046 26.6263C18.1046 26.6613 18.1046 26.6963 18.1046 26.8713V27.0901V27.0901ZM18.256 26.8626V26.6263C18.256 26.6176 18.2649 26.6088 18.2738 26.6001C18.2828 26.6001 18.3273 26.5913 18.354 26.5913C18.452 26.5913 18.5856 26.6088 18.6925 26.7138C18.746 26.7663 18.8084 26.8538 18.8084 27.0026C18.8084 27.1251 18.7816 27.2301 18.7104 27.3001C18.6391 27.3613 18.5589 27.3876 18.4342 27.3876C18.3362 27.3876 18.2917 27.3613 18.2738 27.3438C18.2649 27.3263 18.2649 27.2826 18.256 27.2563C18.256 27.2301 18.256 27.1426 18.256 27.0201V26.8626Z" fill="#1D1D1D"/>
<path d="M17.3829 27.0901C17.3829 27.2038 17.3829 27.3001 17.374 27.3526C17.374 27.3876 17.3651 27.4051 17.3384 27.4138C17.3295 27.4138 17.3117 27.4138 17.2939 27.4138C17.2761 27.4138 17.2761 27.4226 17.2761 27.4226C17.2761 27.4313 17.285 27.4313 17.3028 27.4313C17.3473 27.4313 17.4274 27.4313 17.4541 27.4313C17.4897 27.4313 17.5609 27.4313 17.6411 27.4313C17.65 27.4313 17.6589 27.4313 17.6589 27.4226C17.6589 27.4138 17.65 27.4138 17.6411 27.4138C17.6233 27.4138 17.5966 27.4138 17.5788 27.4138C17.5431 27.4051 17.5342 27.3876 17.5342 27.3526C17.5342 27.3001 17.5342 27.2126 17.5342 27.0901V26.8801C17.5342 26.7051 17.5342 26.6701 17.5342 26.6351C17.5342 26.5913 17.5431 26.5738 17.5788 26.5651C17.5877 26.5651 17.6055 26.5651 17.6144 26.5651C17.6233 26.5651 17.6322 26.5651 17.6322 26.5476C17.6322 26.5388 17.6233 26.5388 17.6055 26.5388C17.5609 26.5388 17.4897 26.5388 17.463 26.5388C17.4274 26.5388 17.3562 26.5388 17.3117 26.5388C17.2939 26.5388 17.285 26.5388 17.285 26.5476C17.285 26.5563 17.2939 26.5651 17.3028 26.5651C17.3117 26.5651 17.3295 26.5651 17.3473 26.5651C17.374 26.5738 17.3829 26.5913 17.3918 26.6351C17.3918 26.6701 17.3918 26.7051 17.3918 26.8801V27.0901H17.3829Z" fill="#1D1D1D"/>
<path d="M16.6169 26.9938C16.6169 26.9851 16.6169 26.9851 16.6258 26.9851C16.6436 26.9851 16.7683 26.9851 16.8039 26.9938C16.8396 26.9938 16.8574 27.0201 16.8663 27.0376C16.8663 27.0551 16.8752 27.0638 16.8752 27.0726C16.8752 27.0813 16.8752 27.0901 16.8841 27.0901C16.893 27.0901 16.893 27.0813 16.893 27.0638C16.893 27.0551 16.893 27.0026 16.9019 26.9763C16.9019 26.9413 16.9108 26.9151 16.9108 26.9063C16.9108 26.8976 16.9108 26.8976 16.9019 26.8976C16.893 26.8976 16.893 26.9063 16.8841 26.9063C16.8752 26.9238 16.8574 26.9238 16.8307 26.9238C16.8129 26.9238 16.795 26.9238 16.7772 26.9238H16.6258C16.6169 26.9238 16.6169 26.9238 16.6169 26.9151V26.6263C16.6169 26.6176 16.6258 26.6088 16.6258 26.6088L16.8129 26.6176C16.8574 26.6176 16.8841 26.6351 16.893 26.6526C16.9019 26.6701 16.9019 26.6876 16.9019 26.6963C16.9019 26.7138 16.9019 26.7138 16.9108 26.7138C16.9198 26.7138 16.9198 26.7051 16.9198 26.6963C16.9198 26.6788 16.9198 26.6088 16.9287 26.6001C16.9376 26.5738 16.9376 26.5563 16.9376 26.5476C16.9376 26.5388 16.9376 26.5388 16.9287 26.5388C16.9198 26.5388 16.9198 26.5476 16.9108 26.5476C16.9019 26.5476 16.8841 26.5476 16.8574 26.5476H16.5456C16.51 26.5476 16.4387 26.5476 16.3763 26.5476C16.3585 26.5476 16.3496 26.5476 16.3496 26.5563C16.3496 26.5651 16.3585 26.5651 16.3674 26.5651C16.3852 26.5651 16.4031 26.5651 16.412 26.5651C16.4476 26.5738 16.4565 26.5913 16.4654 26.6351C16.4654 26.6701 16.4654 26.7051 16.4654 26.8801V27.0901C16.4654 27.2038 16.4654 27.2913 16.4565 27.3438C16.4476 27.3788 16.4476 27.4051 16.4209 27.4051C16.412 27.4051 16.3942 27.4051 16.3763 27.4051C16.3585 27.4051 16.3585 27.4138 16.3585 27.4138C16.3585 27.4226 16.3674 27.4226 16.3852 27.4226C16.4298 27.4226 16.5011 27.4226 16.5367 27.4226C16.5723 27.4226 16.6436 27.4226 16.7149 27.4226C16.7327 27.4226 16.7416 27.4226 16.7416 27.4138C16.7416 27.4051 16.7327 27.4051 16.7238 27.4051C16.7059 27.4051 16.6792 27.4051 16.6614 27.4051C16.6258 27.3963 16.6169 27.3701 16.6169 27.3438C16.608 27.2913 16.608 27.2038 16.608 27.0901V26.9938H16.6169Z" fill="#1D1D1D"/>
<path d="M9.02682 27.0901C9.02682 27.1951 9.02682 27.2913 9.01791 27.3438C9.01791 27.3788 9.009 27.4051 8.98228 27.4051C8.97337 27.4051 8.95555 27.4051 8.93773 27.4051C8.91992 27.4051 8.91992 27.4051 8.91992 27.4138C8.91992 27.4226 8.92883 27.4226 8.94664 27.4226C8.99118 27.4226 9.07136 27.4226 9.09809 27.4226C9.16045 27.4226 9.26735 27.4313 9.35643 27.4313C9.57915 27.4313 9.70387 27.3526 9.75732 27.2913C9.82858 27.2213 9.89094 27.1076 9.89094 26.9676C9.89094 26.8276 9.83749 26.7313 9.77513 26.6701C9.64151 26.5388 9.44552 26.5388 9.29407 26.5388C9.22281 26.5388 9.14263 26.5388 9.107 26.5388C9.07136 26.5388 9.00009 26.5388 8.92883 26.5388C8.91101 26.5388 8.9021 26.5388 8.9021 26.5476C8.9021 26.5563 8.91101 26.5563 8.91992 26.5563C8.93773 26.5563 8.95555 26.5563 8.97337 26.5563C9.009 26.5651 9.01791 26.5826 9.02682 26.6263C9.02682 26.6613 9.02682 26.6963 9.02682 26.8713V27.0901ZM9.17826 26.8626C9.17826 26.7751 9.17826 26.6701 9.17826 26.6263C9.17826 26.6176 9.18717 26.6088 9.19608 26.6001C9.20499 26.6001 9.24953 26.5913 9.27626 26.5913C9.37425 26.5913 9.50788 26.6088 9.61478 26.7138C9.66823 26.7663 9.73059 26.8538 9.73059 27.0026C9.73059 27.1251 9.70387 27.2301 9.6326 27.3001C9.56133 27.3613 9.48115 27.3876 9.35643 27.3876C9.25844 27.3876 9.2139 27.3613 9.19608 27.3438C9.18717 27.3263 9.18717 27.2826 9.18717 27.2563C9.18717 27.2301 9.18717 27.1426 9.18717 27.0201V26.8626H9.17826Z" fill="#1D1D1D"/>
<path d="M7.77962 27.0551C7.77962 27.2213 7.82417 27.3088 7.88653 27.3701C7.97561 27.4488 8.09142 27.4488 8.15378 27.4488C8.23396 27.4488 8.32304 27.4401 8.40322 27.3613C8.50121 27.2826 8.51903 27.1426 8.51903 27.0026V26.8801C8.51903 26.7051 8.51903 26.6701 8.51903 26.6351C8.51903 26.5913 8.52794 26.5738 8.56357 26.5651C8.58139 26.5651 8.5903 26.5651 8.59921 26.5651C8.61702 26.5651 8.61702 26.5651 8.61702 26.5563C8.61702 26.5476 8.60811 26.5476 8.5903 26.5476C8.54575 26.5476 8.46558 26.5476 8.45667 26.5476C8.45667 26.5476 8.3854 26.5476 8.32304 26.5476C8.30523 26.5476 8.29632 26.5476 8.29632 26.5563C8.29632 26.5651 8.30522 26.5651 8.31413 26.5651C8.32304 26.5651 8.34977 26.5651 8.35868 26.5651C8.39431 26.5738 8.40322 26.5913 8.41213 26.6351C8.41213 26.6701 8.41213 26.7051 8.41213 26.8801V27.0288C8.41213 27.1513 8.41213 27.2563 8.34086 27.3176C8.28741 27.3613 8.22505 27.3788 8.1716 27.3788C8.12706 27.3788 8.0736 27.3701 8.02015 27.3263C7.95779 27.2738 7.93107 27.2038 7.93107 27.0376V26.8713C7.93107 26.6963 7.93107 26.6613 7.93107 26.6263C7.93107 26.5826 7.94888 26.5651 7.97561 26.5563C7.99343 26.5563 7.99343 26.5563 8.01124 26.5563C8.02015 26.5563 8.02906 26.5563 8.02906 26.5476C8.02906 26.5388 8.02015 26.5388 8.00234 26.5388C7.95779 26.5388 7.88653 26.5388 7.85089 26.5388C7.81526 26.5388 7.73508 26.5388 7.67272 26.5388C7.6549 26.5388 7.646 26.5388 7.646 26.5476C7.646 26.5563 7.65491 26.5563 7.66381 26.5563C7.68163 26.5563 7.69945 26.5563 7.70836 26.5563C7.7529 26.5651 7.76181 26.5826 7.76181 26.6263C7.76181 26.6613 7.76181 26.6963 7.76181 26.8713V27.0551H7.77962Z" fill="#1D1D1D"/>
<path d="M19.3784 27.09C19.3784 27.195 19.3784 27.2913 19.3695 27.3438C19.3606 27.3788 19.3606 27.405 19.3338 27.405C19.3249 27.405 19.3071 27.405 19.2893 27.405C19.2715 27.405 19.2715 27.4138 19.2715 27.4138C19.2715 27.4225 19.2804 27.4225 19.2982 27.4225C19.3428 27.4225 19.4229 27.4225 19.4497 27.4225C19.5209 27.4225 19.6011 27.4313 19.7793 27.4313C19.8238 27.4313 19.8327 27.4313 19.8416 27.3963C19.8505 27.37 19.8594 27.2913 19.8594 27.265C19.8594 27.2563 19.8594 27.2388 19.8505 27.2388C19.8416 27.2388 19.8416 27.2475 19.8416 27.2563C19.8327 27.3 19.8149 27.3263 19.7882 27.3438C19.7615 27.3613 19.708 27.3613 19.6724 27.3613C19.5476 27.3613 19.5298 27.3438 19.5298 27.265C19.5298 27.23 19.5298 27.125 19.5298 27.0813V26.985C19.5298 26.9763 19.5298 26.9763 19.5387 26.9763C19.5655 26.9763 19.6813 26.9763 19.708 26.9763C19.7525 26.9763 19.7704 26.9938 19.7793 27.02C19.7793 27.0375 19.7793 27.055 19.7882 27.0638C19.7882 27.0725 19.7882 27.0725 19.7971 27.0725C19.806 27.0725 19.806 27.0638 19.806 27.055C19.806 27.0463 19.806 27.0025 19.8149 26.9763C19.8149 26.915 19.8238 26.8975 19.8238 26.8888C19.8238 26.88 19.8149 26.88 19.8149 26.88C19.806 26.88 19.806 26.8888 19.7971 26.8975C19.7882 26.9063 19.7704 26.915 19.7436 26.915C19.7169 26.915 19.5744 26.915 19.5566 26.915C19.5476 26.915 19.5476 26.915 19.5476 26.9063V26.6088C19.5476 26.6 19.5476 26.6 19.5566 26.6C19.5833 26.6 19.708 26.6 19.7258 26.6088C19.7882 26.6175 19.7971 26.6263 19.806 26.6525C19.8149 26.67 19.8149 26.6875 19.8149 26.6963C19.8149 26.705 19.8149 26.7138 19.8238 26.7138C19.8327 26.7138 19.8327 26.705 19.8327 26.6963C19.8327 26.6788 19.8416 26.6263 19.8416 26.6175C19.8416 26.565 19.8505 26.5475 19.8505 26.5388C19.8505 26.53 19.8505 26.53 19.8416 26.53C19.8327 26.53 19.8327 26.5388 19.8238 26.5388C19.8149 26.5388 19.7971 26.5475 19.7704 26.5475H19.4675C19.4318 26.5475 19.3606 26.5475 19.2982 26.5475C19.2804 26.5475 19.2715 26.5475 19.2715 26.5563C19.2715 26.565 19.2804 26.565 19.2893 26.565C19.3071 26.565 19.3249 26.565 19.3338 26.565C19.3784 26.5738 19.3873 26.5913 19.3873 26.635C19.3873 26.67 19.3873 26.705 19.3873 26.88V27.09H19.3784Z" fill="#1D1D1D"/>
<path d="M14.5322 27.09C14.5322 27.195 14.5322 27.2913 14.5233 27.3438C14.5233 27.3788 14.5144 27.405 14.4877 27.405C14.4788 27.405 14.461 27.405 14.4432 27.405C14.4253 27.405 14.4253 27.4138 14.4253 27.4138C14.4253 27.4225 14.4343 27.4225 14.4521 27.4225C14.5055 27.4225 14.5768 27.4225 14.6035 27.4225C14.6391 27.4225 14.7104 27.4225 14.7906 27.4225C14.7995 27.4225 14.8084 27.4225 14.8084 27.4138C14.8084 27.405 14.7995 27.405 14.7906 27.405C14.7728 27.405 14.7461 27.405 14.7282 27.405C14.6926 27.3963 14.6837 27.37 14.6837 27.3438C14.6748 27.2913 14.6748 27.195 14.6748 27.09V26.6088H14.8262C14.9331 26.6088 14.9688 26.6438 14.9688 26.6788V26.6875C14.9688 26.705 14.9777 26.7138 14.9866 26.7138C14.9955 26.7138 14.9955 26.705 14.9955 26.6963C14.9955 26.6613 14.9955 26.5825 14.9955 26.565C14.9955 26.5475 14.9955 26.5388 14.9866 26.5388C14.9777 26.5388 14.9509 26.5475 14.8708 26.5475H14.3986C14.363 26.5475 14.3095 26.5475 14.2828 26.5475C14.2561 26.5475 14.2383 26.53 14.2294 26.53C14.2204 26.53 14.2204 26.5388 14.2115 26.5563C14.2115 26.565 14.1848 26.67 14.1848 26.6875C14.1848 26.705 14.1848 26.705 14.1937 26.705C14.2026 26.705 14.2026 26.6963 14.2026 26.6875C14.2026 26.6788 14.2115 26.6613 14.2204 26.6438C14.2383 26.6175 14.265 26.6088 14.3363 26.6088H14.5144V27.09H14.5322Z" fill="#1D1D1D"/>
<path d="M11.8418 26.6613C11.8775 26.6088 11.9042 26.5738 11.9309 26.565C11.9487 26.565 11.9666 26.5563 11.9755 26.5563C11.9844 26.5563 11.9933 26.5475 11.9933 26.5475C11.9933 26.5388 11.9844 26.5388 11.9755 26.5388C11.9309 26.5388 11.8864 26.5388 11.8597 26.5388C11.8418 26.5388 11.7884 26.5388 11.7438 26.5388C11.726 26.5388 11.7171 26.5388 11.7171 26.5475C11.7171 26.5563 11.726 26.5563 11.7349 26.5563C11.7438 26.5563 11.7617 26.5563 11.7706 26.5563C11.7795 26.5563 11.7884 26.565 11.7884 26.5738C11.7884 26.5825 11.7884 26.6 11.7795 26.6175C11.7617 26.6525 11.6548 26.81 11.6191 26.8625C11.5746 26.7838 11.5211 26.6963 11.4677 26.6C11.4588 26.5913 11.4588 26.5738 11.4588 26.565C11.4588 26.5563 11.4588 26.5475 11.4766 26.5475C11.4855 26.5475 11.5033 26.5475 11.5122 26.5475C11.5211 26.5475 11.53 26.5475 11.53 26.5388C11.53 26.53 11.5211 26.53 11.5033 26.53C11.4588 26.53 11.3875 26.53 11.3786 26.53C11.3251 26.53 11.2271 26.53 11.2004 26.53C11.1826 26.53 11.1737 26.53 11.1737 26.5388C11.1737 26.5475 11.1737 26.5475 11.1826 26.5475C11.1915 26.5475 11.2182 26.5475 11.2361 26.5563C11.2806 26.565 11.3073 26.6 11.3341 26.6438L11.5389 26.9763L11.3073 27.3C11.2628 27.3613 11.245 27.3788 11.2093 27.3875C11.1915 27.3963 11.1737 27.3963 11.1648 27.3963C11.1559 27.3963 11.147 27.405 11.147 27.405C11.147 27.4138 11.1559 27.4138 11.1648 27.4138H11.1826C11.2004 27.4138 11.2628 27.4138 11.2806 27.4138C11.3073 27.4138 11.3875 27.4138 11.3964 27.4138H11.4142C11.432 27.4138 11.441 27.4138 11.441 27.405C11.441 27.3963 11.432 27.3963 11.4231 27.3963C11.4142 27.3963 11.4053 27.3963 11.3964 27.3963C11.3875 27.3963 11.3697 27.3875 11.3697 27.3788C11.3697 27.3613 11.3786 27.3525 11.3875 27.3263L11.5657 27.0463C11.6191 27.1338 11.6904 27.2475 11.7528 27.3613C11.7617 27.3788 11.7528 27.3875 11.7528 27.3875C11.7438 27.3875 11.7349 27.3963 11.7349 27.3963C11.7349 27.405 11.7438 27.4138 11.7795 27.4138C11.8686 27.4138 11.9666 27.4138 11.9933 27.4138H12.0289C12.0467 27.4138 12.0556 27.4138 12.0556 27.405C12.0556 27.3963 12.0467 27.3963 12.0378 27.3963C12.0289 27.3963 12.0111 27.3963 11.9933 27.3875C11.9576 27.3788 11.9398 27.3613 11.922 27.335C11.8953 27.3 11.6993 26.9763 11.6637 26.9238L11.8418 26.6613Z" fill="#1D1D1D"/>
<path d="M13.8017 27.23C13.8106 27.23 13.8106 27.23 13.8106 27.2387L13.864 27.3875C13.873 27.405 13.864 27.4137 13.8551 27.4137C13.8462 27.4137 13.8373 27.4137 13.8373 27.4225C13.8373 27.4312 13.8551 27.4312 13.873 27.4312C13.9709 27.4312 14.0511 27.4312 14.0957 27.4312C14.1402 27.4312 14.1491 27.4312 14.1491 27.4225C14.1491 27.4137 14.1402 27.4137 14.1313 27.4137C14.1135 27.4137 14.0957 27.4137 14.0779 27.4137C14.0511 27.405 14.0155 27.3962 13.971 27.2825C13.8908 27.1075 13.7037 26.6262 13.677 26.5562C13.6681 26.53 13.6592 26.5212 13.6413 26.5212C13.6324 26.5212 13.6235 26.5387 13.6057 26.5737L13.3028 27.3087C13.2761 27.37 13.2583 27.405 13.2048 27.4137C13.1959 27.4137 13.1781 27.4137 13.1692 27.4137C13.1603 27.4137 13.1514 27.4137 13.1514 27.4225C13.1514 27.4312 13.1603 27.4312 13.1781 27.4312C13.2405 27.4312 13.3028 27.4312 13.3206 27.4312C13.3563 27.4312 13.4097 27.4312 13.4453 27.4312C13.4632 27.4312 13.4632 27.4312 13.4632 27.4225C13.4632 27.4137 13.4632 27.4137 13.4453 27.4137H13.4275C13.3919 27.4137 13.383 27.3962 13.383 27.3787C13.383 27.37 13.3919 27.335 13.4008 27.3087L13.4275 27.2475C13.4275 27.2387 13.4364 27.2387 13.4364 27.2387H13.8017V27.23ZM13.481 27.1687C13.4721 27.1687 13.4721 27.1687 13.4721 27.16L13.6235 26.7662C13.6235 26.7662 13.6235 26.7575 13.6324 26.7575C13.6324 26.7575 13.6324 26.7662 13.6413 26.7662L13.7928 27.16C13.7928 27.16 13.7928 27.1687 13.7839 27.1687H13.481Z" fill="#1D1D1D"/>
<path d="M10.675 27.23C10.6839 27.23 10.6839 27.23 10.6839 27.2387L10.7373 27.3875C10.7462 27.405 10.7373 27.4137 10.7284 27.4137C10.7195 27.4137 10.7106 27.4137 10.7106 27.4225C10.7106 27.4312 10.7284 27.4312 10.7462 27.4312C10.8442 27.4312 10.9333 27.4312 10.969 27.4312C11.0135 27.4312 11.0224 27.4312 11.0224 27.4225C11.0224 27.4137 11.0135 27.4137 11.0046 27.4137C10.9868 27.4137 10.969 27.4137 10.9511 27.4137C10.9244 27.405 10.8888 27.3962 10.8442 27.2825C10.7641 27.1075 10.577 26.6262 10.5414 26.5562C10.5324 26.53 10.5235 26.5212 10.5146 26.5212C10.5057 26.5212 10.4968 26.5387 10.479 26.5737L10.1761 27.3087C10.1494 27.37 10.1316 27.405 10.0781 27.4137C10.0692 27.4137 10.0514 27.4137 10.0425 27.4137C10.0336 27.4137 10.0247 27.4137 10.0247 27.4225C10.0247 27.4312 10.0336 27.4312 10.0514 27.4312C10.1137 27.4312 10.1761 27.4312 10.1939 27.4312C10.2296 27.4312 10.283 27.4312 10.3186 27.4312C10.3365 27.4312 10.3365 27.4312 10.3365 27.4225C10.3365 27.4137 10.3365 27.4137 10.3186 27.4137H10.3008C10.2652 27.4137 10.2563 27.3962 10.2563 27.3787C10.2563 27.37 10.2652 27.335 10.2741 27.3087L10.3008 27.2475C10.3008 27.2387 10.3097 27.2387 10.3097 27.2387H10.675V27.23ZM10.3454 27.1687C10.3454 27.1687 10.3365 27.1687 10.3454 27.16L10.4968 26.7662L10.5057 26.7575L10.5146 26.7662L10.6661 27.16C10.6661 27.1687 10.6661 27.1687 10.6572 27.1687H10.3454Z" fill="#1D1D1D"/>
<path d="M7.18268 27.23C7.18268 27.23 7.19159 27.23 7.19159 27.2387L7.24504 27.3875C7.25395 27.405 7.24504 27.4137 7.23613 27.4137C7.22722 27.4137 7.21831 27.4137 7.21831 27.4225C7.21831 27.4312 7.23613 27.4312 7.25395 27.4312C7.35194 27.4312 7.44102 27.4312 7.47666 27.4312C7.5212 27.4312 7.53011 27.4312 7.53011 27.4225C7.53011 27.4137 7.5212 27.4137 7.51229 27.4137C7.49448 27.4137 7.47666 27.4137 7.45884 27.4137C7.43212 27.405 7.39648 27.3962 7.35194 27.2825C7.27176 27.1075 7.08468 26.6262 7.05796 26.5562C7.05796 26.53 7.05796 26.5125 7.04014 26.5125C7.03123 26.5125 7.02232 26.53 7.00451 26.565L6.71053 27.3C6.6838 27.3612 6.66598 27.3962 6.61253 27.405C6.60362 27.405 6.58581 27.405 6.5769 27.405C6.56799 27.405 6.55908 27.405 6.55908 27.4137C6.55908 27.4225 6.56799 27.4225 6.58581 27.4225C6.64817 27.4225 6.71053 27.4225 6.72834 27.4225C6.76398 27.4225 6.81743 27.4225 6.85306 27.4225C6.86197 27.4225 6.87088 27.4225 6.87088 27.4137C6.87088 27.405 6.87088 27.405 6.85306 27.405H6.82634C6.7907 27.405 6.78179 27.3875 6.78179 27.37C6.78179 27.3612 6.7907 27.3262 6.79961 27.3L6.82634 27.2387C6.82634 27.23 6.83525 27.23 6.83525 27.23H7.18268ZM6.86197 27.1687C6.85306 27.1687 6.85306 27.1687 6.85306 27.16L7.00451 26.7662L7.01342 26.7575C7.01342 26.7575 7.01342 26.7662 7.02232 26.7662L7.17377 27.16C7.17377 27.1687 7.17377 27.1687 7.16486 27.1687H6.86197Z" fill="#1D1D1D"/>
<path d="M18.425 18.0864L18.4161 17.9114H18.5943C18.8348 17.9114 18.9596 17.6839 19.0219 17.4126C18.0776 17.4039 14.7102 17.4214 14.7102 17.4214V20.8339C14.9953 20.6326 15.2625 20.4576 15.6189 20.3526V19.7576V19.6001H15.7792H15.9752C15.993 18.7776 16.1979 18.1739 16.5899 17.7801L16.7057 17.6664L16.8215 17.7801C17.2135 18.1739 17.4095 18.7689 17.4362 19.6001H17.6411H17.8015V19.7576V20.3964C18.1845 20.5539 18.4429 20.7901 18.6478 21.0439C18.9685 20.4051 19.2001 19.6701 19.2803 18.8214C19.2624 18.8214 19.2446 18.8301 19.2268 18.8301C18.8437 18.8301 18.4518 18.5764 18.425 18.0864Z" fill="#1D1D1D"/>
<path d="M16.6879 20.5188C15.6634 20.5188 15.2714 20.7988 14.7102 21.2188V24.4825C14.7102 24.4825 17.1333 23.66 18.4607 21.3588C18.1489 20.9213 17.7035 20.5188 16.6879 20.5188ZM17.5253 21.84L17.2224 21.4988L16.7057 21.9538L16.9195 22.19C16.9195 22.19 17.1422 22.085 17.3293 22.3125C17.1868 22.435 16.9284 22.6538 16.7859 22.7763C16.5899 22.5575 16.7235 22.3563 16.7235 22.3563L16.5097 22.12L15.8683 22.68L15.6634 22.4438L16.3137 21.9013L16.0821 21.6388C16.0821 21.6388 15.993 21.7175 15.8683 21.8225C15.6812 21.6125 15.5387 21.3325 15.6723 20.9825C16.0465 20.895 16.3048 21.0788 16.4919 21.2888C16.3672 21.4025 16.2781 21.4725 16.2781 21.4725L16.5186 21.7438L17.0531 21.3063L16.7503 20.9563C17.0264 20.9213 17.2669 21.0175 17.4095 21.175C17.5253 21.3325 17.5966 21.5775 17.5253 21.84Z" fill="#1D1D1D"/>
<path d="M19.2626 17.4126C19.2626 17.4126 19.2359 17.4126 19.1914 17.4126C19.1112 17.8063 18.9241 18.0776 18.5945 18.0776C18.6212 18.4626 18.9241 18.6639 19.2092 18.6639C19.2359 18.6639 19.2537 18.6551 19.2804 18.6551C19.2983 18.2613 19.3072 17.8501 19.2626 17.4126Z" fill="#1D1D1D"/>
<path d="M10.2384 17.3862C9.99785 17.3862 9.8375 17.3862 9.8375 17.395C9.77514 18.0775 9.80187 18.6987 9.89986 19.2675C10.1493 18.865 10.3987 18.4625 10.3809 18.1825C10.372 17.885 10.3007 17.6225 10.2384 17.3862Z" fill="#1D1D1D"/>
<path d="M10.4077 17.3862C10.4701 17.6225 10.5413 17.885 10.5502 18.1737C10.5591 18.5062 10.3097 18.9175 10.0425 19.355C10.0068 19.4075 9.98009 19.4512 9.95337 19.5037C10.7195 23.2312 14.3898 24.4737 14.3898 24.4737V17.395C14.3987 17.395 11.6371 17.3862 10.4077 17.3862ZM13.1604 21.8137C12.9823 21.8487 12.6883 21.875 12.4923 21.875C12.2963 21.875 12.0112 21.8575 11.8242 21.8137C11.842 21.735 11.8687 21.63 11.8954 21.525C11.7618 21.5162 11.6193 21.4637 11.5034 21.42C11.5569 21.2275 11.646 21.035 11.7173 20.7725C11.9667 20.825 12.2072 20.8512 12.4834 20.8512C12.7595 20.8512 13.0001 20.8337 13.2495 20.7725C13.3208 21.035 13.4099 21.2275 13.4722 21.42C13.3653 21.455 13.2228 21.5075 13.0803 21.525C13.1159 21.63 13.1426 21.735 13.1604 21.8137ZM11.6638 20.265C11.7974 20.2125 12.3408 20.195 12.5012 20.195C12.6616 20.195 13.1961 20.2212 13.3386 20.265C13.3564 20.335 13.3564 20.4312 13.3475 20.51C13.1426 20.5712 12.7774 20.5975 12.5101 20.5975C12.2339 20.5975 11.8776 20.5625 11.6727 20.51C11.646 20.4312 11.646 20.335 11.6638 20.265ZM13.7038 18.8737C13.499 19.3462 13.303 19.845 13.2406 19.9937C13.1337 19.9762 13.0179 19.9675 12.9021 19.9587C13.0357 19.5387 13.205 18.9437 13.3475 18.5675C13.4366 18.305 13.8909 18.4275 13.7038 18.8737ZM12.5012 18.165C12.5368 17.9462 13.1693 17.9025 13.0535 18.3837C12.9377 18.8737 12.7863 19.4512 12.6705 19.9412C12.617 19.9412 12.5636 19.9412 12.5101 19.9412C12.4567 19.9412 12.4032 19.9412 12.3498 19.9412C12.2339 19.4512 12.0825 18.8737 11.9667 18.3837C11.8331 17.9025 12.4656 17.9462 12.5012 18.165ZM11.6549 18.5675C11.7974 18.9437 11.9578 19.5387 12.1003 19.9587C11.9845 19.9675 11.8687 19.9762 11.7618 19.9937C11.6994 19.845 11.5034 19.355 11.2986 18.8737C11.1026 18.4275 11.5569 18.305 11.6549 18.5675Z" fill="#1D1D1D"/>
<path d="M19.4407 12.3549H14.5499H9.65913H9.48096V12.5387V15.9687C9.5255 15.9949 9.57004 16.0299 9.61458 16.0649V12.5037H19.5208V15.8112C19.5565 15.8462 19.5921 15.8899 19.6277 15.9512V12.5299V12.3462H19.4407V12.3549Z" fill="#1D1D1D"/>
<path d="M9.97994 15.6364C10.2383 15.8464 10.3363 15.9951 10.2561 16.6951C10.2472 16.7826 10.2917 16.9489 10.3452 17.1239H19.0666C19.0755 17.0276 19.0844 16.9401 19.0844 16.8614C19.0933 16.4764 19.0221 16.1701 18.8974 16.0476C18.8528 16.0039 18.8083 15.9864 18.7281 15.9864H18.7103L18.3628 16.0214L18.5499 15.7326C18.7281 15.4439 18.9953 15.2776 19.2715 15.2601V12.7139H9.85522V15.5576C9.89086 15.5751 9.91758 15.5926 9.95322 15.6189L9.97994 15.6364ZM15.521 15.3039V15.1289L15.0934 15.1201C15.1914 14.6739 16.0734 14.1139 16.4742 13.9826C16.4564 13.5014 17.0978 13.3439 17.6145 13.3264C18.2559 13.3089 18.4074 13.9914 18.4074 14.2014C18.4074 14.4814 18.3361 15.1026 17.9798 15.2951C17.4631 15.5751 17.0177 15.1901 17.0177 14.8401C17.0177 14.4551 17.2849 14.2364 17.7571 14.2889C18.2203 14.3414 18.1847 14.0789 17.8372 13.9914C17.668 13.9476 16.9286 13.9126 16.6791 14.4551C16.5366 14.4639 16.3852 14.4026 16.2961 14.3151C16.1981 14.4376 16.0466 14.5164 15.8417 14.5776C16.0199 14.9364 16.3852 14.8751 16.6079 14.7089C16.599 14.7614 16.599 14.8051 16.599 14.8576C16.599 15.7414 17.5522 15.9601 18.1401 15.6276C18.0421 15.9164 18.0867 16.2751 18.1312 16.5201H15.815C15.8506 16.2751 16.1624 15.9951 16.4208 15.8201L16.2159 15.5051C15.9665 15.6101 15.7259 15.7151 15.4587 15.7851C14.8173 15.9339 14.8529 15.4789 15.521 15.3039ZM13.8908 16.0214C13.8017 16.1439 13.2494 16.3101 13.1157 16.2314C12.8841 16.0914 12.7683 15.8026 12.8218 15.6714C12.8841 15.5051 13.4899 15.3389 13.6859 15.4001C13.8819 15.4614 13.962 15.9076 13.8908 16.0214ZM10.6748 14.6126C11.1826 14.3239 11.4498 14.1139 11.7171 13.7026C11.5211 13.6064 11.2806 13.4314 11.1024 13.1864C12.0734 13.4576 12.5634 13.5976 13.7126 13.1951C13.5255 13.4839 13.2494 13.6589 13.0177 13.8076C13.2761 14.2276 13.5344 14.7089 13.6235 15.0939C13.285 15.0676 12.893 15.1464 12.6169 15.4001C12.1893 15.4176 11.6458 15.5489 11.3519 14.5951C11.2004 14.6739 11.0401 14.7701 11.0401 14.7701C11.2182 15.3914 11.5389 15.8201 12.3941 15.7239C12.4387 15.9251 12.4743 16.0389 12.5812 16.2051C12.2338 16.4064 11.3519 16.9139 10.6837 16.3276V14.6126H10.6748Z" fill="#1D1D1D"/>
<path d="M9.85522 15.7588V17.1325H10.1668C10.1133 16.9488 10.0688 16.7913 10.0866 16.6863C10.1578 15.9863 10.051 15.9163 9.85522 15.7588Z" fill="#1D1D1D"/>
<path d="M19.2623 17.1325V15.4263C19.0576 15.4438 18.8528 15.5663 18.6926 15.82C18.7104 15.82 18.7282 15.82 18.746 15.82C19.1288 15.82 19.2623 16.3363 19.2534 16.87C19.2534 16.9575 19.2445 17.045 19.2445 17.1325H19.2623Z" fill="#1D1D1D"/>
<path d="M12.1448 14.7963C12.3051 14.875 12.51 14.7788 12.7149 14.805C12.6704 14.7175 12.6259 14.6563 12.6526 14.525C12.706 14.28 12.5011 14.2188 12.4121 14.2188C12.1715 14.2363 12.0468 14.28 11.7974 14.2188C11.9577 14.385 11.9221 14.6825 12.1448 14.7963Z" fill="#1D1D1D"/>
<path d="M159.171 19.2849V15.0587C159.171 14.3937 159.117 14.2274 158.939 14.0174C158.796 13.8512 158.529 13.7549 158.235 13.7549C157.727 13.7549 156.935 14.1574 156.471 14.6299V19.2849H155.5V14.4724C155.5 13.5799 155.26 13.1512 155.26 13.1512L156.231 12.8887C156.231 12.8887 156.462 13.3524 156.462 13.8687C157.131 13.2124 157.79 12.9062 158.467 12.9062C159.153 12.9062 159.767 13.2649 160.026 13.8249C160.133 14.0524 160.177 14.3062 160.177 14.5512V19.2937H159.171V19.2849Z" fill="#1D1D1D"/>
<path d="M136.392 19.2849V15.0587C136.392 14.3937 136.338 14.2274 136.16 14.0174C136.018 13.8512 135.75 13.7549 135.456 13.7549C134.949 13.7549 134.156 14.1574 133.693 14.6299V19.2849H132.721V14.4724C132.721 13.5799 132.481 13.1512 132.481 13.1512L133.452 12.8887C133.452 12.8887 133.684 13.3524 133.684 13.8687C134.352 13.2124 135.011 12.9062 135.688 12.9062C136.383 12.9062 136.989 13.2649 137.247 13.8249C137.345 14.0524 137.398 14.3062 137.398 14.5512V19.2937H136.392V19.2849Z" fill="#1D1D1D"/>
<path d="M119.555 19.3549H118.575L116.285 13.0987L117.31 12.8887L118.788 17.1937C118.967 17.7099 119.091 18.2612 119.091 18.2612H119.118C119.118 18.2612 119.225 17.7712 119.421 17.2112L120.882 13.0549H121.942L119.555 19.3549Z" fill="#1D1D1D"/>
<path d="M146.298 19.2849V14.6736C146.298 14.0699 146.022 13.7549 145.478 13.7549C144.908 13.7549 144.454 14.1224 143.795 14.7174V19.2849H142.788V14.8486C142.788 14.4724 142.752 14.2186 142.61 14.0436C142.458 13.8686 142.253 13.7899 141.959 13.7899C141.469 13.7899 140.997 14.0261 140.338 14.6211V19.2849H139.376V14.4461C139.376 13.5449 139.144 13.1161 139.144 13.1161L140.115 12.8886C140.115 12.8886 140.347 13.3786 140.347 13.8161C140.766 13.3524 141.55 12.8799 142.2 12.8799C142.823 12.8799 143.447 13.2561 143.679 13.9211C144.293 13.2824 145.068 12.8799 145.719 12.8799C146.663 12.8799 147.313 13.5799 147.313 14.5774V19.2936H146.298V19.2849Z" fill="#1D1D1D"/>
<path d="M150.066 16.3276V16.4763C150.066 17.0626 150.146 17.5176 150.36 17.8413C150.717 18.3838 151.304 18.6026 151.946 18.6026C152.561 18.6026 153.059 18.4101 153.505 18.0163L153.888 18.6463C153.327 19.1451 152.561 19.4251 151.741 19.4251C149.977 19.4251 148.917 18.1738 148.917 16.1001C148.917 15.0501 149.149 14.3676 149.683 13.7376C150.191 13.1513 150.823 12.8713 151.59 12.8713C152.276 12.8713 152.881 13.1076 153.309 13.5451C153.861 14.0963 154.039 14.6826 154.039 16.1788V16.3188H150.066V16.3276ZM152.685 14.1926C152.471 13.8513 152.026 13.6413 151.536 13.6413C150.627 13.6413 150.12 14.2888 150.066 15.5838H152.979C152.961 14.9101 152.872 14.4988 152.685 14.1926Z" fill="#1D1D1D"/>
<path d="M123.599 16.3276V16.4763C123.599 17.0626 123.679 17.5176 123.893 17.8413C124.249 18.3838 124.837 18.6026 125.479 18.6026C126.094 18.6026 126.592 18.4101 127.038 18.0163L127.421 18.6463C126.86 19.1451 126.094 19.4251 125.274 19.4251C123.51 19.4251 122.45 18.1738 122.45 16.1001C122.45 15.0501 122.682 14.3676 123.216 13.7376C123.724 13.1513 124.356 12.8713 125.122 12.8713C125.808 12.8713 126.414 13.1076 126.851 13.5451C127.403 14.0963 127.581 14.6826 127.581 16.1788V16.3188H123.599V16.3276ZM126.218 14.1926C126.004 13.8513 125.55 13.6413 125.069 13.6413C124.16 13.6413 123.653 14.2888 123.599 15.5838H126.512C126.494 14.9101 126.405 14.4988 126.218 14.1926Z" fill="#1D1D1D"/>
<path d="M131.741 13.9825C131.679 13.9563 131.563 13.93 131.465 13.93C131.082 13.93 130.699 14.0963 130.405 14.385C130.111 14.6738 130.031 14.8575 130.031 15.3738V19.285H129.033V14.4725C129.033 13.5538 128.819 13.1425 128.819 13.1425L129.817 12.88C129.817 12.88 130.058 13.37 130.022 13.895C130.485 13.2563 131.153 12.8538 131.813 12.8538C131.982 12.8538 132.16 12.915 132.16 12.915L131.741 13.9825Z" fill="#1D1D1D"/>
<path d="M113.167 19.4513C111.421 19.4513 110.423 18.1825 110.423 16.1263C110.423 14.0963 111.457 12.8538 113.132 12.8538C114.192 12.8538 114.887 13.3263 115.314 13.9475C115.706 14.5163 115.902 15.2513 115.902 16.2663C115.902 18.3488 114.762 19.4513 113.167 19.4513ZM114.468 14.455C114.201 13.9038 113.639 13.65 113.114 13.65C112.552 13.65 112.027 13.9125 111.813 14.3238C111.608 14.7088 111.51 15.2163 111.51 15.9513C111.51 16.8263 111.662 17.605 111.911 17.9988C112.143 18.375 112.65 18.6288 113.203 18.6288C113.871 18.6288 114.37 18.2875 114.584 17.6838C114.726 17.2988 114.78 16.9488 114.78 16.3275C114.762 15.4613 114.673 14.875 114.468 14.455Z" fill="#1D1D1D"/>
<path d="M83.9294 19.6175C83.5374 19.4512 83.1721 19.1625 83.0118 18.8387C82.8871 18.9612 82.7445 19.0925 82.6198 19.18C82.2991 19.4075 81.8359 19.53 81.3013 19.53C79.8493 19.53 79.0564 18.8037 79.0564 17.5262C79.0564 16.0212 80.1165 15.3212 82.2011 15.3212C82.3258 15.3212 82.4416 15.3212 82.5842 15.33V15.0675C82.5842 14.35 82.4416 14.1137 81.818 14.1137C81.2657 14.1137 80.6332 14.3762 79.9294 14.84L79.1989 13.6325C79.5464 13.4225 79.7958 13.2912 80.259 13.1075C80.9005 12.845 81.4439 12.7312 82.0497 12.7312C83.1454 12.7312 83.9026 13.1337 84.161 13.8512C84.2501 14.1137 84.2857 14.315 84.2768 15.0062L84.2412 17.1675C84.2322 17.8675 84.2768 18.1737 84.8558 18.5937L83.9294 19.6175ZM82.4684 16.4762C81.2835 16.4762 80.8737 16.6862 80.8737 17.4562C80.8737 17.955 81.1944 18.2962 81.631 18.2962C81.9517 18.2962 82.2724 18.13 82.5218 17.8587L82.5485 16.4762H82.4684Z" fill="#1D1D1D"/>
<path d="M57.4711 16.5987V16.6512C57.4711 17.64 57.97 18.2087 58.852 18.2087C59.4399 18.2087 59.9922 17.9987 60.5089 17.57L61.1771 18.5762C60.4198 19.18 59.6359 19.4687 58.7094 19.4687C56.8297 19.4687 55.6182 18.165 55.6182 16.1437C55.6182 14.9887 55.8587 14.2275 56.4377 13.5975C56.9723 13.0112 57.6226 12.7312 58.4956 12.7312C59.2528 12.7312 59.9655 12.985 60.3842 13.405C60.9811 14.0087 61.2573 14.875 61.2573 16.2137V16.5987H57.4711V16.5987ZM59.4756 15.295C59.4756 14.8225 59.4221 14.5687 59.2707 14.3325C59.1014 14.0787 58.8609 13.9562 58.5134 13.9562C57.8631 13.9562 57.4889 14.455 57.4889 15.3475V15.3737H59.4666V15.295H59.4756Z" fill="#1D1D1D"/>
<path d="M50.861 16.5987V16.6512C50.861 17.64 51.3599 18.2087 52.2418 18.2087C52.8298 18.2087 53.3821 17.9987 53.8988 17.57L54.567 18.5762C53.8097 19.18 53.0169 19.4687 52.0993 19.4687C50.2196 19.4687 49.0081 18.165 49.0081 16.1437C49.0081 14.9887 49.2486 14.2275 49.8276 13.5975C50.3622 13.0112 51.0125 12.7312 51.8855 12.7312C52.6427 12.7312 53.3554 12.985 53.7741 13.405C54.371 14.0087 54.6471 14.875 54.6471 16.2137V16.5987H50.861V16.5987ZM52.8654 15.295C52.8654 14.8225 52.812 14.5687 52.6605 14.3325C52.4913 14.0787 52.2508 13.9562 51.9033 13.9562C51.253 13.9562 50.8788 14.455 50.8788 15.3475V15.3737H52.8565V15.295H52.8654Z" fill="#1D1D1D"/>
<path d="M89.6576 19.285V15.1113C89.6576 14.385 89.524 14.1663 89.0785 14.1663C88.7311 14.1663 88.2857 14.3938 87.8937 14.7438V19.285H86.1833V14.63C86.1833 14.0788 86.1031 13.5538 85.9517 13.125L87.475 12.6963C87.6265 12.9588 87.7155 13.2388 87.7155 13.5013C87.9739 13.3263 88.1877 13.1775 88.4728 13.0288C88.8202 12.8538 89.2656 12.7488 89.6487 12.7488C90.3792 12.7488 91.0117 13.125 91.2166 13.6763C91.3057 13.9125 91.3413 14.1925 91.3413 14.595V19.285H89.6576V19.285Z" fill="#1D1D1D"/>
<path d="M66.0946 19.285V15.1113C66.0946 14.385 65.9699 14.1663 65.5156 14.1663C65.1681 14.1663 64.7227 14.3938 64.3307 14.7438V19.285H62.6203V14.63C62.6203 14.0788 62.5401 13.5538 62.3887 13.125L63.912 12.6963C64.0635 12.9588 64.1526 13.2388 64.1526 13.5013C64.4109 13.3263 64.6247 13.1775 64.9098 13.0288C65.2572 12.8538 65.7026 12.7488 66.0857 12.7488C66.8162 12.7488 67.4487 13.125 67.6536 13.6763C67.7427 13.9125 67.7783 14.1925 67.7783 14.595V19.285H66.0946V19.285Z" fill="#1D1D1D"/>
<path d="M46.6295 19.46C46.4157 19.3113 46.2375 19.1013 46.1217 18.83C45.703 19.2325 45.0883 19.4425 44.4023 19.4425C43.4848 19.4425 42.6919 19.0138 42.4692 18.4013C42.3712 18.1125 42.3267 17.7713 42.3267 17.1238V13.0113L44.0104 12.6963V16.8263C44.0104 17.4038 44.0638 17.7013 44.1529 17.8763C44.242 18.0513 44.5003 18.1738 44.7498 18.1738C45.1685 18.1738 45.6852 17.8763 45.8099 17.5613V13.0463L47.449 12.705V17.605C47.449 18.0338 47.5916 18.4713 47.841 18.7688L46.6295 19.46Z" fill="#1D1D1D"/>
<path d="M71.6627 19.4863C70.8609 19.4863 69.979 19.2325 69.0168 18.7513L69.6315 17.5263C70.1571 17.8413 71.0658 18.2525 71.8052 18.2525C72.2863 18.2525 72.6693 17.9375 72.6693 17.5263C72.6693 17.0888 72.3486 16.8613 71.6627 16.7388L70.8965 16.5988C70.46 16.52 69.9255 16.2225 69.6939 15.9425C69.4623 15.6713 69.3197 15.1988 69.3197 14.7875C69.3197 13.5362 70.3264 12.6875 71.8497 12.6875C72.901 12.6875 73.5869 13.0025 74.1838 13.2912L73.6225 14.42C72.9722 14.0962 72.5001 13.9563 72.0101 13.9563C71.5112 13.9563 71.1816 14.21 71.1816 14.5863C71.1816 14.91 71.3954 15.085 72.0012 15.2338L72.794 15.435C73.5958 15.6363 73.8631 15.8725 74.0947 16.1613C74.3352 16.4588 74.451 16.8263 74.451 17.255C74.4599 18.585 73.3375 19.4863 71.6627 19.4863Z" fill="#1D1D1D"/>
<path d="M164.471 13.7813H163.144V17.8063C163.144 18.4976 163.331 18.7338 163.963 18.7338C164.24 18.7338 164.409 18.6988 164.587 18.6113L164.73 19.2413C164.409 19.4076 164.053 19.4951 163.607 19.4951C163.278 19.4951 163.019 19.4338 162.779 19.3201C162.333 19.1101 162.164 18.7076 162.164 18.0776V13.7901H161.335V13.0376H162.164C162.164 12.4338 162.262 11.4538 162.262 11.4538L163.313 11.2263C163.313 11.2263 163.188 12.2063 163.188 13.0288H164.783L164.471 13.7813Z" fill="#1D1D1D"/>
<path d="M106.557 19.4249C105.461 19.4249 104.526 19.0487 103.858 18.3487C103.118 17.5612 102.771 16.4937 102.771 15.0149C102.771 13.3699 103.216 12.2062 104.125 11.4012C104.749 10.8499 105.506 10.5874 106.415 10.5874C107.35 10.5874 108.152 10.8762 108.811 11.4362L108.339 12.0749C107.626 11.6024 107.109 11.4099 106.432 11.4099C105.408 11.4099 104.606 11.8737 104.25 12.8624C104.018 13.5012 103.902 14.2274 103.902 15.0499C103.902 16.1787 104.116 17.0887 104.517 17.6574C104.918 18.2262 105.809 18.5762 106.637 18.5762C107.19 18.5762 107.662 18.4624 108.027 18.2349V15.6099H106.263L106.058 14.7612H109.007V18.7774C108.392 19.1712 107.448 19.4249 106.557 19.4249Z" fill="#1D1D1D"/>
<path d="M41.2935 20.7638C41.2935 20.7638 41.0352 20.9126 40.5006 20.9126C39.8147 20.9126 39.2 20.5101 38.8704 20.3001C38.4517 20.0288 37.7568 19.6351 37.0709 19.4251C35.7435 19.4251 34.8705 19.0663 34.1934 18.2001C33.5164 17.3426 33.1689 16.2401 33.1689 14.9626C33.1689 13.0813 33.8994 11.5675 35.1734 10.885C35.699 10.6138 36.3493 10.4563 37.0085 10.4563C39.3693 10.4563 40.8303 12.1538 40.8303 14.8838C40.8303 16.7738 40.1443 18.1913 39.0842 18.8826C39.3247 18.9701 39.6722 19.1976 39.877 19.3201C40.1978 19.5038 40.5808 19.6788 40.9728 19.6788C41.3559 19.6788 41.7657 19.6176 41.7657 19.6176L41.2935 20.7638ZM38.5497 12.9151C38.4071 12.4776 37.935 11.8125 36.9907 11.8125C36.3938 11.8125 35.8682 12.11 35.6099 12.5738C35.307 13.1338 35.1645 13.9038 35.1645 14.9538C35.1645 16.4588 35.4228 17.4038 35.9573 17.7801C36.2424 17.9813 36.5987 18.0776 37.0174 18.0776C38.2557 18.0776 38.7813 17.1501 38.7813 14.9276C38.7813 14.0438 38.7011 13.4051 38.5497 12.9151Z" fill="#1D1D1D"/>
<path d="M97.2209 19.285C97.1674 19.1888 97.1407 19.0838 97.1229 18.9088C96.7042 19.2763 96.2053 19.4513 95.6174 19.4513C93.9604 19.4513 92.9092 18.1825 92.9092 16.1875C92.9092 14.1838 94.0406 12.8013 95.7065 12.8013C96.1786 12.8013 96.5528 12.915 96.8646 13.1688C96.8378 13.0288 96.8111 12.5913 96.8111 12.215V10.01L98.5126 10.2725V16.9488C98.5126 18.5325 98.6373 19.04 98.7532 19.2938H97.2209V19.285ZM96.8378 14.56C96.5171 14.28 96.2142 14.1488 95.9024 14.1488C95.1363 14.1488 94.8067 14.7788 94.8067 16.205C94.8067 17.5875 95.1007 18.0338 95.9915 18.0338C96.3122 18.0338 96.6686 17.815 96.8378 17.6225V14.56Z" fill="#1D1D1D"/>
<path d="M77.4975 19.4337C76.767 19.4337 76.1791 19.0924 75.9742 18.5587C75.8495 18.2349 75.8227 18.0337 75.8227 17.1149V12.3199C75.8227 11.4799 75.796 10.9637 75.7336 10.3862L77.4797 9.99243C77.5421 10.3424 77.5688 10.7537 77.5688 11.6637V16.6687C77.5688 17.7712 77.5777 17.9199 77.6846 18.0949C77.747 18.2087 77.8895 18.2699 78.032 18.2699C78.0944 18.2699 78.1389 18.2699 78.2191 18.2437L78.5131 19.2499C78.2191 19.3724 77.8628 19.4337 77.4975 19.4337Z" fill="#1D1D1D"/>
<path d="M15.8953 10.3075C15.8329 10.3075 15.7706 10.3338 15.7349 10.3863C15.6637 10.3775 15.5924 10.36 15.5122 10.3513V9.95751C15.5835 9.93126 15.6369 9.86126 15.6369 9.77376C15.6369 9.66876 15.5479 9.57251 15.441 9.57251C15.3341 9.57251 15.245 9.66001 15.245 9.77376C15.245 9.84376 15.2895 9.91376 15.3519 9.94876V10.325C15.2806 10.3163 15.2182 10.3075 15.1381 10.3075C15.1113 10.2375 15.0401 10.1938 14.9599 10.1938C14.853 10.1938 14.7639 10.2813 14.7639 10.3863C14.7639 10.4913 14.853 10.5788 14.9599 10.5788C15.0312 10.5788 15.0935 10.5438 15.1292 10.4913C15.2093 10.5 15.2806 10.5088 15.3519 10.5175L15.343 11.0863C15.2806 11.1213 15.2361 11.1825 15.2361 11.2613C15.2361 11.3663 15.3252 11.4625 15.4321 11.4625C15.539 11.4625 15.6369 11.375 15.6369 11.2613C15.6369 11.1825 15.5835 11.1125 15.5211 11.0863L15.53 10.535C15.5924 10.5438 15.6548 10.5525 15.7171 10.5613C15.7439 10.64 15.8151 10.6925 15.9042 10.6925C16.0111 10.6925 16.1002 10.605 16.1002 10.5C16.0913 10.395 16.0022 10.3075 15.8953 10.3075Z" fill="#1D1D1D"/>
<path d="M14.158 10.1938C14.0778 10.1938 14.0065 10.2375 13.9709 10.3075C13.8996 10.3163 13.8284 10.3163 13.7571 10.325V9.94876C13.8195 9.91376 13.864 9.85251 13.864 9.77376C13.864 9.66876 13.7749 9.57251 13.668 9.57251C13.5522 9.57251 13.4631 9.66001 13.4631 9.77376C13.4631 9.85251 13.5166 9.92251 13.5789 9.95751L13.5878 10.3513C13.5166 10.36 13.4364 10.3688 13.3651 10.3863C13.3295 10.3425 13.276 10.3075 13.2048 10.3075C13.0979 10.3075 13.0088 10.395 13.0088 10.5088C13.0088 10.6138 13.0979 10.7013 13.2048 10.7013C13.2939 10.7013 13.3651 10.6488 13.3919 10.57C13.4542 10.5613 13.5166 10.5525 13.5789 10.5438L13.5878 11.095C13.5166 11.1213 13.472 11.1913 13.472 11.27C13.472 11.375 13.5611 11.4713 13.668 11.4713C13.7749 11.4713 13.8729 11.3838 13.8729 11.27C13.8729 11.1913 13.8284 11.13 13.766 11.095V10.5263C13.8373 10.5175 13.9085 10.5088 13.9887 10.5C14.0244 10.5525 14.0867 10.5875 14.158 10.5875C14.2649 10.5875 14.3629 10.5 14.3629 10.395C14.3629 10.2813 14.2649 10.1938 14.158 10.1938Z" fill="#1D1D1D"/>
<path d="M20.9198 6.14257C20.9198 4.91757 20.8752 3.91132 20.8574 3.59632C20.9019 3.60507 20.9554 3.62257 21.0088 3.64007C21.8997 3.94632 22.1046 5.00507 23.9576 3.80632C22.9687 3.92007 22.9153 3.09757 22.4609 3.08007C23.1469 2.69507 23.1914 1.82007 23.1914 1.82007C22.6213 2.27507 21.285 2.30132 21.0267 2.45007C20.6792 2.65132 20.2516 2.90507 19.9576 3.06257C19.1915 3.47382 19.726 5.71382 19.6458 6.52757C19.2271 5.31132 18.3897 5.49507 17.9532 4.79507C17.6236 5.38132 17.971 6.35257 18.1047 6.63257C17.6236 7.01757 17.7572 7.71757 17.873 7.91007C18.2828 7.62132 18.9153 7.69132 19.1024 8.18132C18.5679 8.50507 17.6681 8.55757 17.0535 7.98007L16.8397 8.21632C17.2762 8.77632 18.3541 8.99507 19.1648 8.54007C19.1648 8.67132 19.1291 8.81132 19.0757 8.96882C18.657 9.18757 18.1136 9.30132 17.4989 9.09132C17.5791 9.70382 18.3007 10.1588 18.9866 10.3513C18.755 10.5263 18.4699 10.5963 18.265 10.5701C18.3986 10.9288 18.4699 11.4013 18.1937 11.7776C17.8552 11.5588 17.6681 11.3313 17.5434 10.4738C17.4098 9.60757 16.7773 8.73257 16.2873 8.55757C16.2606 8.86382 16.2606 8.73257 16.3141 8.92507C17.6147 9.86132 16.8842 11.5588 18.2383 12.1713C18.7372 11.6113 18.7461 11.4188 18.6659 10.8938C19.1559 10.7626 19.5211 10.3601 19.6547 10.0451C19.1915 10.2638 18.4521 9.87882 18.2472 9.58132C19.0579 9.55507 19.8062 8.96007 20.5723 8.17257C21.2583 7.47257 22.1669 7.57757 22.0957 8.12882C22.5678 8.05882 22.7549 7.42882 22.6035 7.01757C23.2983 6.79882 23.8417 6.30007 23.913 5.51257C22.9776 5.96757 21.8017 5.21507 20.9198 6.14257ZM22.0333 6.79882C22.3986 7.09632 22.2828 7.51632 22.1937 7.61257C21.873 7.07007 20.8396 7.25382 19.824 8.38257C19.7527 8.47007 19.6547 8.56632 19.5478 8.66257C19.628 7.31507 18.5055 7.28882 18.1759 7.42882C18.2116 7.04382 18.461 6.77257 18.5857 6.73757C18.2561 6.36132 18.1848 5.88882 18.1492 5.53882C18.7015 5.77507 19.5122 6.40507 19.6458 7.49007L20.0022 7.25382C19.8953 5.35507 19.922 5.36382 19.9042 4.07757C19.9042 3.89382 19.9131 3.47382 20.4921 3.51757C20.5189 3.99882 20.5901 5.26757 20.5634 7.03507H20.7683C20.9554 6.54507 21.6235 5.95882 22.3986 6.01132C22.9242 6.04632 23.1112 6.03757 23.4141 5.90632C23.1736 6.50132 22.2738 6.76382 22.0333 6.79882ZM20.5189 3.18507C20.893 2.92257 21.1336 2.80007 21.3295 2.68632C21.6502 2.69507 22.2115 2.66007 22.5411 2.49382C22.1937 2.91382 22.158 3.06257 21.5879 3.12382C22.3273 3.18507 22.6391 3.83257 22.9954 3.93757C21.7661 4.31382 21.6413 3.11507 20.5189 3.18507Z" fill="#1D1D1D"/>
<path d="M12.7772 9.15254C12.0912 9.18754 11.4231 10.0625 11.6993 11.06C11.5924 11.095 11.2984 11.095 11.2004 10.8938C11.1291 11.2175 10.4521 11.5938 9.96211 11.5413C10.2294 11.2525 10.4164 10.605 10.942 10.2638C11.4766 9.92254 11.7082 9.68629 11.8953 9.10004C11.6458 9.21379 10.3719 9.53754 10.0066 9.15254C10.853 9.03004 11.8418 8.56629 12.3318 8.26004L12.1358 8.05879C11.6102 8.35629 10.9064 8.59254 10.5501 8.70629C10.4253 7.67379 11.4231 7.71754 11.5033 7.99754C11.9131 7.51629 11.628 6.82504 11.3251 6.74629C11.6369 5.92379 11.3251 5.41629 11.0579 5.11004C10.9955 5.98504 9.99774 6.12504 9.88193 6.79879C9.8463 6.26504 9.81066 4.82129 9.76612 4.12129C9.70376 2.80879 8.02005 2.34504 7.76171 2.34504C6.66596 2.39754 6.56797 2.25754 6.59469 1.75879C6.03346 2.38004 6.22053 2.93129 6.69269 3.20254C6.63033 3.57879 6.02455 3.86754 5.65039 3.94629C6.54124 4.76004 7.57463 4.27879 8.0735 3.81504C8.10914 3.78004 8.13586 3.75379 8.1715 3.71879C8.34967 4.02504 8.4833 4.59379 8.4833 4.91754C7.6459 4.87379 7.50336 5.50379 7.50336 5.74004C8.56347 5.31129 8.67928 7.30629 8.95545 7.62129C8.68819 7.60379 8.20713 6.98254 7.50336 6.93879C6.64814 6.89504 6.35416 7.34129 6.00673 7.32379C6.06909 7.91004 6.79959 8.24254 7.27174 8.31254C7.03121 8.91629 7.24501 9.32754 7.74389 9.47629C7.74389 8.92504 8.45657 8.75004 9.21379 9.18754C10.1314 9.71254 10.5946 9.75629 11.334 9.53754C11.2093 9.80004 10.8797 9.82629 10.4788 10.22C9.90866 10.7713 9.89084 11.4888 9.25834 11.7513C10.0066 12.1013 11.1291 11.6113 11.2895 11.3313C11.6013 11.5238 12.0022 11.41 12.1091 11.2175C11.6013 10.115 12.4565 9.46754 12.795 9.47629C12.795 9.46754 12.9465 9.14379 12.7772 9.15254ZM8.90199 8.70629C8.52784 8.55754 7.94878 8.46129 7.62808 8.90754C7.44991 8.60129 7.70825 8.15504 7.86861 8.01504C7.04903 8.03254 6.58578 7.78754 6.46106 7.54254C6.76395 7.37629 7.53008 7.10504 8.16259 7.56004C8.59911 7.87504 8.81291 8.02379 9.3296 8.19004C9.51668 8.00629 9.44541 8.09379 9.50777 8.04129C9.08907 7.75254 8.90199 5.55629 8.0735 5.47754C8.18931 5.19754 8.61692 5.22379 8.96435 5.31129C8.99108 4.82129 8.78618 4.00754 8.47439 3.53504C8.95545 3.29004 9.28506 3.55254 9.44541 4.13879C9.62358 4.76004 9.40978 6.30879 9.82848 7.70879L10.0868 7.47254C9.9532 6.65879 10.8708 6.36129 11.0668 5.95004C11.1469 6.49254 11.0311 6.74629 10.8708 6.93879C11.2004 6.97379 11.3518 7.29754 11.2984 7.51629C10.5055 7.40254 10.0423 8.18129 10.2205 8.80254C9.62358 8.93379 9.2227 8.83754 8.90199 8.70629ZM6.64814 2.59004C7.27174 2.88754 7.47663 2.33629 8.64365 3.08004C7.86861 3.31629 7.27174 4.26129 6.3987 4.01629C7.0223 3.71004 6.95994 3.26379 7.32519 3.03629C7.09357 3.01004 6.63923 2.90504 6.64814 2.59004Z" fill="#1D1D1D"/>
<path d="M16.8129 11.8824C16.6882 11.0949 16.4031 8.87241 16.3675 8.13741L16.02 8.15491C16.02 8.27741 16.0379 8.44366 16.0557 8.64491C15.6459 8.52241 15.1025 8.44366 14.5501 8.44366C13.9978 8.44366 13.4544 8.53116 13.0446 8.64491C13.0624 8.45241 13.0802 8.28616 13.0802 8.15491L12.7417 8.12866C12.7061 8.87241 12.421 11.0862 12.2963 11.8737C12.0914 11.9524 11.9578 12.1537 11.9578 12.5124C11.9578 12.5124 13.8285 12.5387 14.559 12.5387C15.2895 12.5387 17.1603 12.5124 17.1603 12.5124C17.1514 12.1537 17.0178 11.9612 16.8129 11.8824ZM14.5501 11.8562C14.2562 12.4162 13.7038 12.3987 13.2139 12.0837C13.0179 11.9612 12.8219 11.8737 12.6348 11.8474C12.715 11.2962 12.8575 10.2637 12.9555 9.38866C13.5791 9.10866 14.3542 9.04741 14.5412 9.75616C14.7283 9.04741 15.5033 9.11741 16.1269 9.38866C16.2249 10.2637 16.3675 11.3049 16.4476 11.8474C16.2695 11.8737 16.0646 11.9612 15.8686 12.0837C15.4054 12.3987 14.853 12.4162 14.5501 11.8562Z" fill="#1D1D1D"/>
<path d="M18.4342 3.255C18.4431 3.08 18.1135 2.94875 18.0244 2.94C17.8819 2.93125 17.7126 3.22 17.5255 3.395C17.3652 2.555 17.4453 2.1875 17.5344 1.81125C17.8997 2.45875 18.3896 2.59875 18.648 2.56375C17.775 1.88125 17.9264 1.26 17.6591 1.225C17.5077 1.2075 17.4008 1.21625 17.3206 1.21625C17.0177 1.21625 16.9732 1.8025 16.9286 2.065C16.7327 1.70625 16.5367 1.4 16.1982 0.98C15.8774 0.16625 15.4855 0.3675 15.0846 0C15.3964 0.46375 15.1469 0.7525 15.8685 1.085C16.0556 1.26 16.2783 1.54 16.4209 1.75875C16.2961 1.91625 16.216 2.00375 16.1002 2.1175C16.0111 2.24875 15.9665 2.75625 15.6904 3.1325C16.1002 2.9575 16.2694 2.70375 16.412 2.4675C17.7215 3.43875 16.6614 5.90625 16.3585 6.44875C16.0734 6.25625 15.6993 6.15125 15.3697 6.09L15.334 5.97625L15.0311 5.005H15.1737C15.334 5.005 15.3786 4.9 15.3518 4.8125L16.2516 5.08375L16.6525 5.20625L16.412 4.87375L15.9933 4.305L16.412 3.73625L16.6525 3.40375L16.2516 3.52625L15.4409 3.77125C15.3875 3.5875 15.236 3.5 15.0668 3.4825L15.3429 2.58125L15.4587 2.19625L15.1291 2.4325L14.5501 2.84375L13.971 2.4325L13.6414 2.19625L13.7572 2.58125L14.0334 3.4825C13.873 3.50875 13.7127 3.59625 13.6592 3.77125L12.8486 3.52625L12.4477 3.40375L12.6882 3.73625L13.1069 4.305L12.6882 4.87375L12.4477 5.20625L12.8486 5.08375L13.7572 4.8125C13.7305 4.9 13.7661 5.005 13.9265 5.005H14.069L13.7661 5.97625L13.7216 6.09875C13.3742 6.16 13 6.27375 12.7149 6.46625C11.833 4.795 12.0824 3.0975 12.8218 2.5375C12.8129 2.89625 13.1247 3.3775 13.2762 3.47375C13.1782 3.10625 13.3474 2.45 13.1514 2.28375C13.0178 2.17 12.8129 2.1175 12.5902 2.1175C12.7417 1.8725 12.9465 1.56625 13.294 1.12C13.8107 0.8925 13.9621 0.2975 14.0868 0C13.5256 0.20125 13.1069 0.49 13.0178 0.95375C12.8218 1.21625 12.5991 1.5225 12.3497 1.88125C12.3675 1.44375 12.1181 1.295 11.7974 1.26875C10.8531 1.46125 10.9154 2.135 10.1047 2.59875C10.6571 2.79125 11.5301 1.5925 11.833 1.72375C11.8775 2.45875 11.7083 3.03625 11.7083 3.43875C11.5657 3.28125 11.4945 3.17625 11.3697 3.15875C11.2539 3.14125 10.9332 3.1675 10.7194 3.40375C10.6571 3.78 10.6749 4.48 10.3185 5.31125C10.8441 4.83875 11.1025 3.9025 11.1827 3.63125C11.3163 3.815 11.4677 4.2175 11.5034 4.5675C11.5657 5.2325 11.9844 6.3525 12.3408 6.88625C12.2428 7.07 12.2161 7.28 12.2517 7.51625C11.9755 7.7175 11.9399 7.9975 12.0379 8.19C12.1448 8.39125 12.412 8.53125 12.7327 8.40875L12.8307 8.365C13.1693 8.225 13.7929 7.97125 14.5501 7.97125C15.3073 7.97125 15.9398 8.225 16.2694 8.365L16.3674 8.40875C16.6881 8.53125 16.9554 8.39125 17.0623 8.19C17.1603 7.9975 17.1246 7.7175 16.8485 7.51625C16.8841 7.27125 16.8485 7.04375 16.7327 6.8425L16.7416 6.85125C17.3919 5.94125 17.4364 4.20875 17.9709 3.71875C18.0155 4.3225 18.3451 4.83 18.6658 4.9C18.4164 4.47125 18.4164 3.64 18.4342 3.255ZM15.4677 4.06875L15.9487 3.92L15.7171 4.235L15.6547 4.31375L15.7171 4.3925L15.9487 4.7075L15.3429 4.52375C15.3875 4.40125 15.432 4.27 15.4677 4.06875ZM13.1693 4.71625L13.4009 4.40125L13.4632 4.3225L13.4009 4.24375L13.1693 3.92875L13.6503 4.0775C13.677 4.27875 13.7216 4.41875 13.775 4.54125L13.1693 4.71625ZM15.0668 4.55875H14.6926L14.7372 3.9025C15.2984 3.64875 15.2539 4.165 15.0668 4.55875ZM14.9599 5.67875L14.6392 5.45125L14.559 5.39L14.4788 5.45125L14.1581 5.67875L14.363 5.01375H14.755L14.9599 5.67875ZM14.4699 3.1325L14.5501 3.19375L14.6303 3.1325L14.9599 2.89625L14.7728 3.5175C14.7639 3.5175 14.755 3.5175 14.755 3.52625C14.7193 3.4475 14.6392 3.395 14.5501 3.395C14.461 3.395 14.3808 3.4475 14.3452 3.52625C14.3363 3.52625 14.3363 3.52625 14.3274 3.5175L14.1403 2.89625L14.4699 3.1325ZM14.0423 4.55875C13.8552 4.165 13.8107 3.64875 14.3719 3.9025L14.4165 4.55875H14.0423ZM14.5501 5.73125L15.0044 6.055C14.8084 6.0375 14.6481 6.0375 14.5501 6.0375C14.4521 6.0375 14.2917 6.0375 14.0957 6.055L14.5501 5.73125ZM12.6971 8.04125L12.5991 8.07625C12.4655 8.12875 12.3764 8.085 12.3408 8.02375C12.3051 7.95375 12.3319 7.84 12.4922 7.74375C12.51 7.735 12.5368 7.7175 12.5635 7.70875L12.8842 7.9625C12.8129 7.9975 12.7506 8.02375 12.6971 8.04125ZM13.7839 7.7L13.4543 7.385C13.7305 7.315 14.0156 7.27125 14.2917 7.25375L14.4877 7.63C14.2383 7.63 13.9978 7.665 13.7839 7.7ZM15.6191 7.77L15.4231 7.3325C15.7171 7.385 16.0022 7.4725 16.2516 7.5775L16.3674 8.0325C16.1803 7.95375 15.9309 7.84875 15.6191 7.77ZM14.5501 6.90375C13.9265 6.90375 13.2138 7.0525 12.6704 7.28C12.6793 7.1575 12.7238 7.06125 12.7951 6.965C13.1069 6.58875 13.9354 6.4575 14.5412 6.4575C15.1469 6.4575 15.9754 6.58875 16.2872 6.965C16.3674 7.0525 16.403 7.1575 16.412 7.28C15.8864 7.04375 15.1915 6.90375 14.5501 6.90375Z" fill="#1D1D1D"/>
<path d="M10.0958 16.6601C10.176 15.9513 10.0602 15.8901 9.85526 15.7238C9.67709 15.5751 9.3742 15.5313 9.08022 15.3301C8.86641 15.1813 8.80405 14.9801 8.5368 14.7001C8.59025 14.1051 9.02676 13.3701 9.34747 13.2038C9.39201 13.1776 9.3831 12.2501 9.3831 12.2501C9.3831 12.2501 9.59691 12.2413 9.57909 12.2326C9.29402 12.0576 8.94659 12.1888 8.69715 12.4776C8.45662 12.6701 7.89538 13.0376 7.51232 13.1688C6.99563 12.7401 6.18495 12.3551 5.58808 11.7776C5.58808 11.7776 6.37203 11.7688 6.73728 11.6288C6.83527 11.5676 7.08471 11.1826 6.97781 10.8063C6.85309 10.7626 6.68383 10.6751 6.50566 10.5788C6.29185 10.4563 6.08696 10.3338 5.98896 10.2551C5.65044 10.0013 5.50791 9.78258 4.91994 9.63383C4.95558 9.37133 5.01794 9.43258 5.27628 9.25758C5.6059 9.03883 5.79298 8.77632 5.92661 8.51382C6.0246 8.31257 5.90879 7.89258 5.65044 8.42633C5.56136 8.61008 5.30301 8.86383 5.00903 8.94258C5.03575 8.77633 5.04466 8.68008 5.04466 8.59258C5.90879 7.99758 5.8197 7.47258 5.75734 6.97383C5.70389 6.68508 5.41882 6.56258 5.42773 6.86008C5.43664 7.06133 5.61481 7.62133 5.02685 7.94508C5.00903 7.70008 4.94667 7.58633 4.89322 7.46383C5.41882 6.78133 5.19611 6.12508 4.9734 5.82758C4.83086 5.63508 4.49234 5.57383 4.64378 5.87133C4.77741 6.11633 4.9823 6.79008 4.59033 7.06133C4.4567 6.90383 4.30526 6.83383 4.25181 6.61508C4.28744 5.88008 4.2429 5.42508 4.1449 5.16258C4.05582 4.91758 3.81529 4.76008 3.83311 5.12758C3.85092 5.53883 3.88656 6.05508 3.85092 6.08133C3.81529 6.11633 3.26296 5.60883 3.04025 5.46008C2.80863 5.30258 2.54137 5.36383 2.79972 5.67008C3.04025 5.93258 3.74402 6.44883 3.65494 6.61508C3.60149 6.72008 3.0937 6.30883 2.82645 6.22133C2.55919 6.13383 2.47901 6.27383 2.70173 6.44883C3.06698 6.73758 3.30751 6.93008 3.90437 7.13133C4.50124 7.32383 4.79523 8.13758 4.60815 9.29258C4.59924 9.34508 4.50124 9.33633 4.43889 9.31883C4.41216 8.88133 4.33198 8.34758 4.22508 8.12008C4.08254 7.80508 3.80638 7.80508 3.90437 8.21633C3.98455 8.54008 4.02909 8.89883 3.97564 9.33633C3.48568 9.25758 3.2986 9.12633 3.0937 9.00383C3.07588 8.77633 3.19169 8.40883 3.20951 8.08508C3.22733 7.76133 3.03134 7.56008 2.92444 7.96258C2.81754 8.35633 2.74627 8.54008 2.68391 8.82008C2.54137 8.77633 2.38993 8.71508 2.32757 8.63633C2.29194 8.60133 2.32757 8.16383 2.29194 7.84008C2.2563 7.48133 2.11377 7.49008 2.00686 7.80508C1.95341 7.95383 1.91778 8.14633 1.89996 8.37383C1.7307 8.27758 1.61489 8.08508 1.59707 7.91883C1.6238 7.54258 1.68616 7.14883 1.7307 6.89508C1.76633 6.72008 1.64161 6.35258 1.49908 6.79008C1.39218 7.11383 1.36545 7.37633 1.30309 7.59508C1.17837 7.58633 1.01802 6.87758 0.928934 6.41383C0.8933 6.21258 0.71513 5.97633 0.679496 6.43133C0.643862 6.94758 0.750764 7.46383 0.884392 7.69133C0.634954 7.66508 0.394424 7.21883 0.216254 6.95633C0.0648096 6.72883 -0.015367 6.96508 0.00245005 7.06133C0.153895 7.97133 0.8933 8.29508 1.22292 8.35633C1.73961 9.08258 2.72845 9.39758 3.56585 9.75633C2.47901 9.74758 2.19394 10.1763 1.69507 9.89633C1.71288 10.2988 1.91778 10.4826 2.11377 10.5788C2.2563 10.6401 2.38993 10.6576 2.45229 10.6751C2.54137 11.1651 3.01352 11.1388 3.41441 11.1651C3.3075 12.1188 3.43222 13.3788 4.27853 14.3151C4.25181 14.7963 4.21617 15.4351 4.22508 15.8551C3.53913 16.4763 2.91553 17.8063 2.675 18.5413C2.48792 19.0926 2.21176 19.5213 1.78415 19.7226C2.13158 20.0813 2.64828 19.9063 2.95116 19.7051C2.96898 20.0288 3.04916 20.2563 3.10261 20.4488C2.90662 20.7376 2.76409 20.9388 2.7819 21.2976C2.55919 21.3588 2.39884 21.4988 2.28303 21.6476C2.20285 21.7438 2.29194 22.1813 2.38102 22.3651C2.65718 22.9776 2.44338 24.3601 2.38993 24.7626C2.50574 24.7713 2.71954 24.7713 2.76409 24.6051C2.83535 24.6663 3.00462 24.7888 3.08479 25.0513C3.06698 25.1651 2.99571 25.5938 3.21842 25.6463C3.39659 25.6901 4.18054 25.6638 4.28744 25.5326C4.20726 25.4451 4.07364 25.2351 3.99346 25.0338C3.99346 24.8238 3.97564 24.5701 3.91328 24.4651C3.8242 24.3076 3.60149 23.9576 3.45004 23.8176C3.42332 23.5638 3.39659 22.4351 3.5124 22.0063C3.7173 21.8663 5.08921 20.8688 5.37428 19.9063C5.62372 19.9938 5.55245 20.6588 5.55245 21.5251C5.55245 21.7613 5.83752 21.8751 6.01569 21.9013C6.38985 21.9451 6.91545 22.2951 7.51232 23.1613C7.62813 23.0388 7.77957 22.9251 7.77957 22.9251C7.85975 23.0301 7.94884 23.2751 8.00229 23.4326C8.06465 23.5551 8.54571 23.6251 8.91095 23.5113C9.03567 23.4676 9.10694 23.4501 9.18712 23.3188C8.72388 22.5226 8.4388 21.9888 7.84193 21.5513C7.56577 21.3501 7.19161 21.2451 6.87981 21.0526C7.08471 20.6676 7.65485 18.8826 7.31633 18.2263C7.20052 18.0076 6.764 17.7976 6.2384 17.8938C6.67492 17.3776 7.57468 16.3451 7.69049 16.0301C7.79739 16.1526 8.32299 16.0651 8.71497 16.2226C8.8575 16.2838 9.25839 16.7913 9.2762 16.9663C9.31184 17.2813 9.32965 17.6576 9.10694 18.5238C9.26729 18.4976 9.24057 18.4888 9.39201 18.4276C9.41874 18.6551 9.34747 18.8388 9.14258 19.1888C9.19603 19.5038 9.33856 19.9851 9.49001 20.0726C9.68599 19.4863 10.4254 18.6638 10.4076 18.1738C10.3719 17.5088 10.0602 16.9488 10.0958 16.6601Z" fill="#1D1D1D"/>
</svg>
