<?xml version="1.0" encoding="UTF-8"?>
<svg id="Layer_1" xmlns="http://www.w3.org/2000/svg" version="1.1" viewBox="0 0 117.33 19.73">
  <!-- Generator: Adobe Illustrator 29.5.0, SVG Export Plug-In . SVG Version: 2.1.0 Build 137)  -->
  <path d="M41.35,14.28c.27,0,.49.05.68.14.18.1.32.24.42.44.09.2.14.45.14.75,0,.46-.11.81-.33,1.04-.22.23-.55.35-1,.35h-.41v-2.72h.51ZM41.39,13.7h-1.26v3.89h1.16c.42,0,.78-.07,1.09-.22.3-.15.54-.37.7-.67.16-.3.25-.67.25-1.11,0-.41-.08-.76-.23-1.04-.15-.28-.38-.49-.66-.63-.29-.15-.63-.22-1.03-.22M37.25,13.7h-.86v3.89h.63v-1.96c0-.13,0-.25-.01-.38,0-.13-.01-.25-.02-.37,0-.12-.01-.23-.02-.34h.02l1.84,3.05h.87v-3.89h-.63v1.98c0,.12,0,.24.01.36,0,.13,0,.25.01.37,0,.12,0,.23.01.32h-.02l-1.84-3.03ZM33.73,15.97l.34-.97c.02-.06.04-.14.06-.22.02-.09.05-.18.07-.27.02-.1.04-.18.06-.26.01.06.04.14.06.25.03.1.06.2.08.3.03.1.05.17.07.21l.33.97h-1.08ZM31.3,13.7h-.71v3.89h2.59l.36-1.02h1.44l.37,1.02h.75l-1.43-3.91h-.8l-1.21,3.31h-1.36v-3.3ZM28.24,16.97c-.2-.06-.38-.13-.54-.2v.65c.1.05.2.09.32.12s.24.06.37.07c.13.02.26.02.41.02.29,0,.55-.05.76-.14.21-.09.38-.22.49-.39.11-.17.17-.37.17-.59,0-.2-.04-.37-.12-.51-.08-.14-.19-.26-.34-.35-.15-.1-.32-.19-.53-.28-.18-.08-.33-.15-.44-.22-.11-.06-.2-.13-.25-.2-.05-.07-.08-.16-.08-.27,0-.09.02-.17.07-.24.04-.07.11-.12.2-.16.09-.04.19-.06.32-.06.16,0,.31.02.46.06.15.04.3.09.46.16l.22-.56c-.18-.08-.36-.14-.54-.19-.18-.04-.38-.07-.58-.07-.26,0-.48.04-.68.13-.19.08-.35.21-.45.36-.11.16-.16.35-.16.57,0,.17.03.31.08.44.05.12.13.23.22.32.09.09.19.17.31.23.11.06.23.12.35.17.18.07.33.14.45.21.12.07.21.14.27.21.06.08.09.17.09.28,0,.1-.02.18-.07.26-.05.07-.12.13-.22.17-.1.04-.23.06-.38.06-.2,0-.4-.03-.6-.09M24.79,13.7h-.86v3.89h.63v-1.96c0-.13,0-.25-.01-.38,0-.13-.01-.25-.02-.37,0-.12-.01-.23-.02-.34h.02l1.84,3.05h.87v-3.89h-.63v1.98c0,.12,0,.24.01.36,0,.13,0,.25.01.37,0,.12,0,.23.01.32h-.02l-1.84-3.03ZM23.52,13.7h-2.21v3.89h2.21v-.59h-1.51v-1.14h1.42v-.58h-1.42v-.99h1.51v-.58ZM20.83,13.7h-2.21v3.89h2.21v-.59h-1.51v-1.14h1.42v-.58h-1.42v-.99h1.51v-.58ZM15.7,13.7h-.7v2.51c0,.43.13.78.39,1.04.26.26.64.4,1.15.4.36,0,.65-.06.88-.19.23-.13.41-.3.52-.51.11-.22.17-.46.17-.73v-2.52h-.69v2.43c0,.2-.03.36-.09.5-.06.14-.15.24-.28.31-.13.07-.29.1-.49.1-.29,0-.5-.07-.65-.22-.15-.15-.22-.38-.22-.69v-2.44ZM11.66,15.64c0-.29.04-.55.11-.75.08-.21.2-.37.36-.48.16-.11.37-.17.63-.17.38,0,.66.12.83.37.17.25.25.59.25,1.03,0,.29-.04.54-.11.75-.07.21-.19.37-.35.48-.16.11-.37.17-.62.17s-.46-.06-.62-.17c-.16-.11-.28-.27-.36-.48-.08-.21-.11-.46-.11-.75M11.12,14.59c-.13.3-.2.65-.2,1.05,0,.3.04.58.11.82.07.25.19.46.34.63.15.18.34.31.57.41.23.1.5.14.82.14.01,0,.03,0,.05,0,.02,0,.03,0,.05,0l.71.88h.93l-.94-1.02c.23-.09.42-.23.57-.4.15-.18.26-.39.34-.64.07-.25.11-.52.11-.82,0-.4-.07-.75-.2-1.05-.13-.3-.33-.53-.6-.7-.27-.17-.61-.25-1.02-.25s-.76.08-1.04.25c-.27.17-.47.4-.61.7M7.69,14.26c.18,0,.33.02.44.06.12.04.2.1.25.19.05.08.08.2.08.33,0,.22-.06.38-.19.48-.13.1-.32.16-.57.16h-.43v-1.22h.42ZM7.72,13.7h-1.14v3.87h.7v-1.53h.57l.89,1.53h.8l-1.08-1.72c.13-.06.25-.13.36-.22.11-.09.2-.2.27-.33.07-.13.1-.29.1-.48,0-.25-.05-.46-.16-.62-.11-.16-.27-.29-.49-.37-.22-.08-.49-.12-.83-.12M3.26,15.63c0-.29.04-.54.11-.75.08-.21.19-.37.36-.48.16-.11.37-.17.62-.17.38,0,.65.12.82.37.17.25.25.59.25,1.03,0,.29-.04.54-.11.75-.07.21-.19.37-.35.48-.16.11-.36.17-.62.17s-.45-.06-.62-.17c-.16-.11-.28-.27-.36-.48-.08-.21-.11-.46-.11-.75M2.72,14.58c-.13.3-.2.65-.2,1.04,0,.3.04.57.11.82.07.25.19.46.34.63.15.17.34.31.57.41.23.1.5.14.81.14s.57-.05.8-.14c.23-.09.42-.23.57-.41.15-.18.26-.39.34-.63.07-.24.11-.51.11-.81,0-.4-.07-.75-.2-1.05-.13-.3-.33-.53-.6-.69-.27-.16-.61-.25-1.01-.25s-.76.08-1.03.25c-.27.16-.47.4-.6.69M2.22,13.7H.03v3.87h.68v-1.57h1.41v-.58H.71v-1.14h1.51v-.58ZM5.15,10.06c.1-.38.15-.81.15-1.27,0-.73-.21-1.29-.63-1.67-.42-.38-.99-.57-1.72-.57h-1.69l-.42,1.99h1.58l.13-.63,1.26,1.6-1.94,1.6.13-.63H.43L0,12.48h1.91c.43,0,.82-.05,1.17-.16.35-.11.66-.27.94-.47.27-.21.51-.46.69-.76.19-.3.33-.64.43-1.03M9.57,7.84l.27-1.29h-3.52l-1.25,5.93h3.52l.27-1.3h-1.94l.23-1.12h1.8l.29-1.29h-1.8l.19-.93h1.94ZM12.83,11.19h-1.94l.98-4.64h-1.59l-1.25,5.93h3.52l.27-1.3ZM19.11,12.48l2.94-5.93h-1.68l-1.42,3.27c-.06.12-.12.3-.21.54-.08.24-.15.47-.2.69h-.03c.02-.11.04-.26.05-.44,0-.18.01-.37.02-.56,0-.19,0-.36,0-.5l-.1-2.99h-4.3l-.19.91.65.35-.73,3.44-.78.32-.19.91h3.02l.19-.91-.66-.32.73-3.44.77-.33.36,5h1.77ZM25.64,7.84l.27-1.29h-3.52l-1.25,5.93h3.52l.27-1.3h-1.94l.23-1.12h1.8l.29-1.29h-1.8l.19-.93h1.94ZM28.44,8.28c0,.15-.02.28-.07.39-.05.11-.11.2-.19.26-.08.07-.17.11-.27.15-.1.03-.2.05-.31.05h-.21l.28-1.35h.22c.2,0,.35.05.43.15.08.1.12.22.12.37M33.52,7.46l.19-.91h-3.05l-.19.91.65.35-.73,3.44-.78.32v.07s-.73-1.65-.73-1.65c.17-.08.35-.19.52-.33.18-.14.33-.34.44-.58.12-.24.18-.55.18-.91,0-.54-.18-.95-.54-1.22-.36-.27-.88-.41-1.57-.41h-1.57l-1.25,5.93h1.59l.46-2.16h.3l.79,2.16h4.22l.19-.91-.66-.32.73-3.44.81-.35ZM38.06,12.48l1.25-5.93h-1.41l-.53,2.48c-.03.14-.06.3-.09.49-.03.19-.06.37-.08.56-.02.18-.05.34-.06.46h-.03l-1.16-3.99h-1.84l-1.25,5.93h1.41l.52-2.48c.03-.13.06-.29.08-.46.03-.17.05-.34.07-.51.02-.17.04-.32.05-.45.01-.13.02-.22.03-.28h.03l1.17,4.17h1.84ZM44.29,6.89c-.24-.14-.52-.25-.83-.32-.32-.07-.65-.11-.99-.11-.47,0-.89.07-1.27.2-.37.14-.7.32-.98.56-.28.24-.51.52-.69.83s-.32.65-.41,1.02c-.09.36-.13.74-.13,1.12,0,.79.2,1.38.61,1.77.41.4.95.59,1.62.59.44,0,.83-.03,1.18-.1.34-.07.65-.14.93-.23l.68-3.22h-2.48l-.27,1.24h.93l-.21.94c-.11.02-.19.04-.27.05-.07,0-.16.01-.27.01-.18,0-.34-.04-.46-.11-.12-.07-.22-.19-.29-.35-.07-.16-.1-.36-.1-.61,0-.23.03-.49.1-.76.06-.27.17-.53.31-.78.14-.25.33-.45.57-.61.24-.16.53-.24.88-.24.24,0,.46.04.67.11.21.07.4.16.57.26l.6-1.25Z" fill="#fff"/>
  <g>
    <path d="M84.49,10.66c-.23,0-.45-.1-.64-.22-.12-.07-.32-.21-.46-.26.62-.41,1.02-1.25,1.02-2.37,0-1.62-.85-2.62-2.22-2.62-.39,0-.77.09-1.07.25-.74.4-1.17,1.3-1.17,2.42,0,.76.2,1.41.59,1.92.39.51.9.73,1.67.73.4.13.8.36,1.05.52.19.13.55.36.95.36.31,0,.46-.09.46-.09l.27-.68s-.24.04-.46.04ZM82.18,9.71c-.25,0-.45-.06-.62-.18-.31-.22-.46-.78-.46-1.67,0-.62.08-1.08.26-1.41.15-.27.45-.45.8-.45.55,0,.82.39.91.65.09.29.13.67.13,1.2,0,1.32-.3,1.87-1.03,1.87Z" fill="#fff"/>
    <path d="M85.26,9.9c-.06-.17-.08-.37-.08-.76v-2.44l.98-.19v2.44c0,.34.03.52.08.62.05.1.2.18.35.18.25,0,.54-.18.62-.36v-2.68l.95-.2v2.91c0,.25.08.51.23.69l-.71.4c-.13-.09-.23-.22-.3-.37-.25.24-.6.36-1,.36-.54,0-1-.25-1.12-.62Z" fill="#fff"/>
    <path d="M92.25,8.83v-.23c0-.79-.16-1.31-.51-1.66-.25-.25-.66-.4-1.1-.4-.51,0-.88.16-1.2.51-.33.37-.48.82-.48,1.51,0,1.2.71,1.97,1.8,1.97.53,0,1-.17,1.43-.53l-.39-.59c-.3.25-.62.38-.97.38-.51,0-.8-.33-.8-.92v-.03h2.2ZM90.07,8.09c0-.53.22-.82.59-.82.2,0,.34.07.44.22.09.14.12.29.12.57v.04h-1.15v-.02Z" fill="#fff"/>
    <path d="M96.01,8.83v-.23c0-.79-.16-1.31-.51-1.66-.25-.25-.66-.4-1.1-.4-.51,0-.88.16-1.2.51-.33.37-.48.82-.48,1.51,0,1.2.71,1.97,1.8,1.97.53,0,1-.17,1.43-.53l-.39-.59c-.3.25-.62.38-.97.38-.51,0-.8-.33-.8-.92v-.03h2.2ZM93.82,8.09c0-.53.22-.82.59-.82.2,0,.34.07.44.22.09.14.12.29.12.57v.04h-1.15v-.02Z" fill="#fff"/>
    <path d="M96.71,7.66c0-.33-.04-.64-.13-.89l.88-.25c.09.16.14.32.14.48.15-.1.27-.19.44-.28.2-.1.46-.16.68-.16.42,0,.79.22.91.55.05.14.07.3.07.54v2.78h-.98v-2.47c0-.43-.07-.56-.33-.56-.2,0-.46.13-.69.34v2.69h-1v-2.76Z" fill="#fff"/>
    <path d="M101.88,10.54c-.47,0-.98-.15-1.54-.44l.36-.73c.3.19.83.43,1.26.43.28,0,.51-.19.51-.43,0-.26-.19-.39-.59-.47l-.45-.08c-.25-.04-.57-.22-.7-.39-.13-.16-.22-.44-.22-.68,0-.74.59-1.24,1.47-1.24.61,0,1.01.19,1.36.36l-.33.67c-.38-.19-.65-.27-.94-.27s-.48.15-.48.37c0,.19.13.3.48.39l.46.12c.47.12.62.26.76.43.14.18.21.39.21.65,0,.79-.65,1.32-1.63,1.32Z" fill="#fff"/>
    <path d="M104.21,6.3c0-.5-.01-.8-.05-1.14l1.02-.23c.04.21.05.45.05.99v2.96c0,.65,0,.74.07.85.04.07.12.1.2.1.04,0,.06,0,.11-.01l.17.59c-.17.07-.38.1-.59.1-.42,0-.77-.2-.88-.52-.07-.19-.09-.31-.09-.85v-2.84Z" fill="#fff"/>
    <path d="M109.01,9.16l.02-1.28c0-.41-.02-.53-.07-.68-.15-.42-.59-.66-1.23-.66-.35,0-.67.07-1.04.22-.27.11-.42.19-.62.31l.42.71c.41-.27.78-.43,1.1-.43.36,0,.45.14.45.56v.16c-.08,0-.15,0-.22,0-1.21,0-1.83.42-1.83,1.31,0,.76.46,1.19,1.31,1.19.31,0,.58-.07.77-.21.07-.05.16-.13.23-.2.1.19.3.36.54.46l.53-.61c-.33-.25-.36-.43-.36-.85ZM108.02,9.57c-.15.16-.33.26-.52.26-.25,0-.44-.2-.44-.5,0-.45.24-.58.93-.58h.04l-.02.82Z" fill="#fff"/>
    <path d="M111.74,7.39c-.2,0-.46.13-.69.34v2.69h-1v-2.76c0-.33-.04-.64-.13-.89l.88-.25c.09.16.14.32.14.48.15-.1.27-.19.44-.28.2-.1.46-.16.68-.16.42,0,.79.22.91.55.05.14.07.3.07.54v2.78h-.98v-2.47c0-.43-.07-.56-.33-.56Z" fill="#fff"/>
    <path d="M117.14,9.03v-3.95l-.99-.16v1.31c0,.22.01.48.03.56-.19-.15-.4-.22-.68-.22-.97,0-1.63.82-1.63,2.01s.61,1.93,1.58,1.93c.34,0,.63-.1.88-.32.01.1.03.16.06.22h.89c-.07-.15-.14-.45-.14-1.39ZM116.16,9.43c-.1.12-.3.25-.49.25-.52,0-.69-.27-.69-1.08s.19-1.22.64-1.22c.18,0,.36.08.54.25v1.81Z" fill="#fff"/>
    <path d="M82.01,14.93h1.72v2.38c-.36.24-.91.39-1.43.39-.64,0-1.18-.22-1.57-.64-.43-.47-.63-1.1-.63-1.98,0-.97.26-1.66.79-2.14.36-.33.8-.48,1.33-.48s1.01.17,1.4.51l-.28.38c-.42-.28-.71-.39-1.11-.39-.59,0-1.06.27-1.27.86-.13.38-.2.81-.2,1.29,0,.67.13,1.21.36,1.55.23.33.75.54,1.23.54.32,0,.59-.07.81-.2v-1.55h-1.03l-.12-.51Z" fill="#fff"/>
    <path d="M87.58,14.45c-.25-.36-.65-.65-1.27-.65-.97,0-1.58.74-1.58,1.94s.58,1.97,1.6,1.97c.93,0,1.59-.65,1.59-1.89,0-.6-.11-1.04-.34-1.37ZM87.14,16.67c-.13.36-.42.56-.8.56-.32,0-.62-.15-.75-.37-.14-.23-.23-.69-.23-1.21,0-.44.06-.74.18-.97.13-.25.43-.4.76-.4.3,0,.63.15.79.48.12.25.17.59.17,1.11,0,.36-.03.57-.11.8Z" fill="#fff"/>
    <path d="M91,13.91h.62l-1.39,3.74h-.57l-1.33-3.71.59-.13.86,2.55c.1.3.18.63.18.63h.02s.06-.29.18-.62l.85-2.46Z" fill="#fff"/>
    <path d="M95.07,15.86v-.08c0-.88-.1-1.23-.42-1.56-.25-.26-.6-.4-1-.4-.45,0-.81.16-1.11.51-.31.37-.45.77-.45,1.4,0,1.23.62,1.97,1.64,1.97.48,0,.92-.16,1.25-.46l-.22-.37c-.26.24-.55.35-.91.35s-.71-.13-.92-.45c-.13-.19-.17-.46-.17-.81v-.09h2.31ZM93.62,14.27c.28,0,.54.13.67.33.11.18.16.42.17.82h-1.69c.03-.77.33-1.15.85-1.15Z" fill="#fff"/>
    <path d="M97.72,13.8c.1,0,.2.04.2.04l-.24.63s-.1-.03-.16-.03c-.22,0-.45.1-.62.27s-.22.28-.22.59v2.32h-.58v-2.85c0-.54-.13-.79-.13-.79l.58-.16s.14.29.12.6c.27-.38.66-.62,1.04-.62Z" fill="#fff"/>
    <path d="M101.11,14.37c.06.13.09.28.09.43v2.81h-.59v-2.5c0-.39-.03-.49-.13-.62-.08-.1-.24-.16-.41-.16-.3,0-.76.24-1.03.52v2.76h-.56v-2.85c0-.53-.14-.78-.14-.78l.56-.16s.13.28.13.58c.39-.39.77-.57,1.17-.57s.76.22.91.54Z" fill="#fff"/>
    <path d="M106.97,14.82v2.79h-.59v-2.73c0-.36-.16-.54-.48-.54-.33,0-.59.22-.98.57v2.71h-.59v-2.63c0-.22-.02-.37-.1-.48-.09-.1-.21-.15-.38-.15-.28,0-.56.14-.94.49v2.76h-.56v-2.87c0-.54-.13-.79-.13-.79l.56-.13s.13.29.13.55c.25-.27.7-.56,1.08-.56s.73.22.86.62c.36-.38.81-.62,1.19-.62.55,0,.93.42.93,1Z" fill="#fff"/>
    <path d="M110.87,15.86v-.08c0-.88-.1-1.23-.42-1.56-.25-.26-.6-.4-1-.4-.45,0-.81.16-1.11.51-.31.37-.45.77-.45,1.4,0,1.23.62,1.97,1.64,1.97.48,0,.92-.16,1.25-.46l-.22-.37c-.26.24-.55.35-.91.35s-.71-.13-.92-.45c-.13-.19-.17-.46-.17-.81v-.09h2.31ZM109.41,14.27c.28,0,.54.13.67.33.11.18.16.42.17.82h-1.69c.03-.77.33-1.15.85-1.15Z" fill="#fff"/>
    <path d="M114.54,14.37c.06.13.09.28.09.43v2.81h-.59v-2.5c0-.39-.03-.49-.13-.62-.08-.1-.24-.16-.41-.16-.3,0-.76.24-1.03.52v2.76h-.56v-2.85c0-.53-.14-.78-.14-.78l.56-.16s.13.28.13.58c.39-.39.77-.57,1.17-.57s.76.22.91.54Z" fill="#fff"/>
    <path d="M117.19,17.21l.08.37c-.19.1-.39.15-.65.15-.19,0-.34-.04-.48-.1-.26-.13-.36-.36-.36-.74v-2.54h-.48v-.44h.48c0-.36.06-.94.06-.94l.61-.13s-.07.58-.07,1.07h.93l-.18.44h-.77v2.39c0,.41.11.55.48.55.16,0,.26-.02.36-.07Z" fill="#fff"/>
    <g>
      <path d="M61.61,19.31h.09s.01,0,.01,0c0,0,0,0-.01,0h-.01s-.03,0-.03-.03c0,0,0-.03.01-.05l.02-.05s0,0,0,0h.24s0,0,0,0l.04.1s0,.02,0,.02c0,0-.01,0-.01,0,0,0,.01,0,.03,0h.16s.04,0,.04,0c0,0,0,0,0,0,0,0-.02,0-.04,0-.02,0-.04-.01-.07-.09-.05-.13-.19-.46-.2-.51,0-.02-.01-.03-.02-.03,0,0-.01.01-.02.03l-.21.52s-.03.07-.07.07c0,0-.02,0-.03,0,0,0,0,0,0,0,0,0,0,0,.02,0h.1ZM61.81,18.84s0,0,0,0c0,0,0,0,0,0l.1.28s0,0,0,0h-.21s0,0,0,0l.1-.28Z" fill="#fff"/>
      <path d="M62.31,18.7s.04.02.04.05c0,.03,0,.05,0,.17v.12c0,.12.03.18.07.22.06.05.14.06.18.06.05,0,.12,0,.17-.06.07-.06.08-.16.08-.25v-.09c0-.12,0-.15,0-.17,0-.03,0-.04.03-.05.01,0,.02,0,.02,0,0,0,.01,0,.01,0,0,0,0,0-.02,0-.03,0-.08,0-.09,0,0,0-.05,0-.09,0-.01,0-.02,0-.02,0,0,0,0,0,.02,0,0,0,.02,0,.03,0,.03,0,.03.02.03.05,0,.03,0,.05,0,.17v.1c0,.09,0,.16-.05.21-.03.03-.08.04-.11.04-.03,0-.07,0-.1-.03-.04-.03-.07-.09-.07-.2v-.12c0-.12,0-.15,0-.17,0-.03,0-.04.03-.05.01,0,.02,0,.02,0,0,0,.01,0,.01,0,0,0,0,0-.02,0-.03,0-.08,0-.1,0-.02,0-.08,0-.12,0-.01,0-.02,0-.02,0,0,0,0,0,.02,0,.01,0,.03,0,.03,0Z" fill="#fff"/>
      <path d="M63.17,18.7s.03.02.03.05c0,.03,0,.05,0,.17v.15c0,.08,0,.14,0,.18,0,.02,0,.04-.02.04,0,0-.02,0-.03,0-.01,0-.01,0-.01,0,0,0,0,0,.02,0h.1s.12,0,.18,0c.15,0,.24-.06.28-.1.05-.05.09-.13.09-.23s-.04-.17-.08-.21c-.09-.09-.23-.09-.33-.09-.05,0-.1,0-.13,0-.02,0-.07,0-.12,0-.01,0-.02,0-.02,0,0,0,0,0,.01,0,.01,0,.03,0,.03,0ZM63.31,18.91c0-.06,0-.14,0-.16,0,0,0-.01,0-.02,0,0,.04,0,.05,0,.07,0,.16,0,.24.08.04.03.08.1.08.21,0,.08-.02.16-.07.21-.05.04-.11.06-.19.06-.07,0-.1-.02-.11-.03,0,0,0-.04,0-.06,0-.02,0-.08,0-.17v-.1Z" fill="#fff"/>
      <path d="M64.02,19.31h.09s.01,0,.01,0c0,0,0,0-.01,0h-.01s-.03,0-.03-.03c0,0,0-.03.01-.05l.02-.05s0,0,0,0h.24s0,0,0,0l.04.1s0,.02,0,.02c0,0-.01,0-.01,0,0,0,.01,0,.03,0h.16s.04,0,.04,0c0,0,0,0-.01,0,0,0-.02,0-.04,0-.02,0-.04-.01-.07-.09-.05-.13-.19-.46-.21-.51,0-.02-.01-.03-.02-.03,0,0-.01.01-.02.03l-.21.52s-.03.07-.07.07c0,0-.02,0-.03,0,0,0-.01,0-.01,0,0,0,0,0,.02,0h.1ZM64.22,18.84s0,0,0,0c0,0,0,0,0,0l.1.28s0,0,0,0h-.21s0,0,0,0l.1-.28Z" fill="#fff"/>
      <path d="M64.68,19.31h.16s.02,0,.02,0c0,0,0,0-.01,0,0,0-.01,0-.02,0,0,0-.02,0-.02-.01,0,0,0-.02.01-.03l.12-.2c.04.06.09.14.13.22,0,.01,0,.02,0,.02,0,0-.01,0-.01,0s0,0,.03,0h.17s.02,0,.02,0c0,0,0,0-.01,0,0,0-.02,0-.03,0-.02,0-.03-.02-.05-.04-.02-.03-.15-.25-.18-.29l.14-.19s.04-.06.06-.07c.01,0,.02,0,.03,0,0,0,.01,0,.01,0,0,0,0,0-.01,0-.03,0-.06,0-.08,0-.01,0-.05,0-.08,0-.01,0-.02,0-.02,0,0,0,0,0,0,0,0,0,.02,0,.03,0,0,0,.01,0,.01.01,0,0,0,.02,0,.03-.01.02-.09.14-.11.17-.03-.05-.07-.12-.1-.18,0,0,0-.02,0-.02s0,0,.01-.01c0,0,.02,0,.02,0,0,0,.01,0,.01,0,0,0,0,0-.02,0-.03,0-.08,0-.09,0-.04,0-.11,0-.13,0-.01,0-.02,0-.02,0,0,0,0,0,0,0,0,0,.02,0,.03,0,.03,0,.05.03.07.06l.14.23-.16.23s-.04.06-.07.06c-.01,0-.03,0-.03,0,0,0-.01,0-.01,0,0,0,0,0,.01,0h.02Z" fill="#fff"/>
      <path d="M66.18,19.31h.09s.01,0,.01,0c0,0,0,0-.01,0h-.01s-.03,0-.03-.03c0,0,0-.03.01-.05l.02-.05s0,0,0,0h.24s0,0,0,0l.04.1s0,.02,0,.02c0,0-.01,0-.01,0,0,0,.01,0,.02,0h.16s.04,0,.04,0c0,0,0,0-.01,0,0,0-.02,0-.03,0-.02,0-.04-.01-.07-.09-.05-.13-.18-.46-.21-.51,0-.02-.01-.03-.02-.03,0,0-.01.01-.02.03l-.21.52s-.03.07-.07.07c0,0-.02,0-.02,0,0,0,0,0,0,0,0,0,0,0,.02,0h.1ZM66.38,18.84s0,0,0,0c0,0,0,0,0,0l.11.28s0,0,0,0h-.21s0,0,0,0l.1-.28Z" fill="#fff"/>
      <path d="M66.79,18.78s0-.02.01-.03c.01-.02.03-.02.08-.03h.12s0,.34,0,.34c0,.08,0,.14,0,.18,0,.02,0,.04-.02.04,0,0-.02,0-.03,0,0,0-.01,0-.01,0,0,0,0,0,.02,0h.24s.02,0,.02,0c0,0,0,0-.01,0-.01,0-.03,0-.04,0-.02,0-.03-.02-.03-.04,0-.04,0-.1,0-.18v-.34h.1c.07,0,.1.03.1.05h0s0,.02,0,.02c0,0,0,0,0-.01,0-.02,0-.08,0-.1,0-.01,0-.02,0-.02,0,0-.03,0-.08,0h-.33s-.06,0-.08,0c-.02,0-.03-.01-.04-.01,0,0,0,0-.01.02,0,0-.02.08-.02.09,0,.01,0,.01,0,.01,0,0,0,0,0,0Z" fill="#fff"/>
      <path d="M68.31,18.7s.03.02.03.05c0,.03,0,.05,0,.17v.15c0,.08,0,.14,0,.18,0,.02,0,.04-.02.04,0,0-.02,0-.03,0-.01,0-.01,0-.01,0,0,0,0,0,.02,0h.23s.02,0,.02,0c0,0,0,0-.01,0-.01,0-.03,0-.04,0-.02,0-.03-.02-.03-.04,0-.03,0-.09,0-.18v-.07s0,0,0,0c.01,0,.1,0,.12,0,.03,0,.04.02.04.03,0,.01,0,.02,0,.03,0,0,0,.01,0,.01,0,0,0-.01,0-.02,0,0,0-.04,0-.06,0-.03,0-.05,0-.05,0,0,0,0,0,0,0,0,0,0-.01,0,0,0-.02.01-.04.01-.01,0-.02,0-.04,0h-.11s0,0,0,0v-.21s0-.01,0-.01h.13s.05.02.06.03c0,.01,0,.02,0,.03,0,0,0,.01,0,.01,0,0,0,0,0-.01,0,0,0-.06,0-.07,0-.02,0-.03,0-.04,0,0,0,0,0,0,0,0,0,0-.01,0,0,0-.02,0-.03,0-.02,0-.19,0-.22,0-.02,0-.08,0-.12,0-.01,0-.02,0-.02,0,0,0,0,0,.01,0,.01,0,.03,0,.03,0Z" fill="#fff"/>
      <path d="M68.95,18.7s.03.02.03.05c0,.03,0,.05,0,.17v.15c0,.08,0,.15,0,.18,0,.02,0,.04-.02.04,0,0-.02,0-.03,0-.01,0-.01,0-.01,0,0,0,0,0,.02,0h.23s.02,0,.02,0c0,0,0,0-.01,0-.01,0-.03,0-.04,0-.02,0-.03-.02-.03-.04,0-.04,0-.1,0-.18v-.15c0-.12,0-.15,0-.17,0-.03,0-.04.03-.05,0,0,.02,0,.02,0,0,0,.01,0,.01,0,0,0,0,0-.02,0-.03,0-.08,0-.1,0-.02,0-.07,0-.11,0-.01,0-.02,0-.02,0,0,0,0,0,.01,0s.02,0,.03,0Z" fill="#fff"/>
      <path d="M69.44,18.7s.03.02.04.05c0,.03,0,.05,0,.17v.15c0,.08,0,.14,0,.18,0,.02,0,.04-.02.04,0,0-.02,0-.03,0,0,0-.01,0-.01,0,0,0,0,0,.02,0h.1s.12,0,.18,0c.15,0,.24-.06.28-.1.05-.05.09-.13.09-.23s-.04-.17-.08-.21c-.09-.09-.23-.09-.33-.09-.05,0-.1,0-.13,0-.02,0-.07,0-.12,0-.01,0-.02,0-.02,0,0,0,0,0,.02,0s.02,0,.03,0ZM69.58,18.91v-.16s0-.01.01-.02c0,0,.04,0,.05,0,.07,0,.16,0,.24.08.03.03.08.1.08.21,0,.08-.02.16-.07.21-.05.04-.1.06-.19.06-.07,0-.1-.02-.11-.03,0,0,0-.04,0-.06,0-.02,0-.08,0-.17v-.1Z" fill="#fff"/>
      <path d="M70.32,18.7s.03.02.04.05c0,.03,0,.05,0,.17v.15c0,.08,0,.14,0,.18,0,.02,0,.04-.02.04,0,0-.02,0-.03,0,0,0-.01,0-.01,0,0,0,0,0,.02,0h.1s.1,0,.23,0c.03,0,.04,0,.04-.02,0-.02.01-.07.01-.09,0,0,0-.02,0-.02,0,0,0,0,0,.01,0,.03-.02.05-.04.06-.02,0-.06,0-.08,0-.08,0-.1-.01-.1-.07v-.19s0,0,0,0c.02,0,.1,0,.12,0,.03,0,.04.01.05.03,0,.01,0,.02,0,.03,0,0,0,0,0,0,0,0,0,0,0-.02s0-.04,0-.05c0-.04,0-.06,0-.06,0,0,0,0,0,0,0,0,0,0-.01.01,0,0-.02.01-.04.01-.02,0-.12,0-.13,0,0,0,0,0,0-.01v-.21s0,0,0,0c.02,0,.1,0,.12,0,.04,0,.05.01.05.03,0,0,0,.02,0,.03,0,0,0,.01,0,.01,0,0,0,0,0,0,0-.01,0-.05,0-.06,0-.04,0-.05,0-.05,0,0,0,0,0,0s-.01,0-.01,0c0,0-.02,0-.04,0-.02,0-.18,0-.21,0-.02,0-.07,0-.12,0-.01,0-.02,0-.02,0,0,0,0,0,.01,0,.01,0,.03,0,.03,0Z" fill="#fff"/>
      <path d="M70.96,18.7s.03.02.04.05c0,.03,0,.05,0,.17v.15c0,.08,0,.14,0,.18,0,.02,0,.04-.02.04,0,0-.02,0-.03,0,0,0-.01,0-.01,0,0,0,0,0,.02,0h.1c.07,0,.12,0,.24,0,.04,0,.05,0,.05-.02,0-.02.01-.09.01-.1,0,0,0-.01,0-.01,0,0,0,0,0,.01,0,.02-.01.04-.02.05-.02.02-.05.02-.1.02-.06,0-.08,0-.1-.02-.02-.02-.02-.07-.02-.18v-.15c0-.12,0-.15,0-.17,0-.03,0-.04.03-.05.01,0,.02,0,.03,0,0,0,.01,0,.01,0,0,0,0,0-.02,0-.03,0-.09,0-.11,0-.02,0-.07,0-.11,0-.01,0-.02,0-.02,0,0,0,0,0,.01,0,.01,0,.02,0,.03,0Z" fill="#fff"/>
      <path d="M71.59,18.7s.03.02.03.05c0,.03,0,.05,0,.17v.15c0,.08,0,.15,0,.18,0,.02,0,.04-.02.04,0,0-.02,0-.03,0,0,0-.01,0-.01,0,0,0,0,0,.02,0h.23s.02,0,.02,0c0,0,0,0-.02,0-.01,0-.03,0-.04,0-.03,0-.03-.02-.03-.04,0-.04,0-.1,0-.18v-.15c0-.12,0-.15,0-.17,0-.03,0-.04.03-.05.01,0,.02,0,.03,0s.01,0,.01,0c0,0,0,0-.02,0-.03,0-.08,0-.1,0-.02,0-.08,0-.11,0-.01,0-.02,0-.02,0,0,0,0,0,.01,0,.01,0,.02,0,.03,0Z" fill="#fff"/>
      <path d="M72.19,19.32s.09,0,.13-.03c.06-.04.08-.1.08-.14,0-.08-.04-.14-.14-.21l-.02-.02c-.07-.05-.09-.08-.09-.12,0-.05.04-.09.1-.09.05,0,.08.03.09.04.02.02.02.05.02.05,0,0,0,.01,0,.01,0,0,0,0,0-.02,0-.07,0-.09,0-.1,0,0,0,0-.01-.01-.02,0-.06-.01-.11-.01-.12,0-.19.07-.19.16,0,.07.03.13.12.2l.04.03c.07.05.08.09.08.13,0,.04-.04.09-.11.09-.05,0-.1-.02-.12-.08,0-.02,0-.03,0-.04,0,0,0-.02,0-.02,0,0,0,0,0,.02,0,.01,0,.06,0,.11,0,.02,0,.02.02.03.04.02.07.02.12.02Z" fill="#fff"/>
      <path d="M65.31,10.45c.13.06.28,0,.44.01-.03-.07-.07-.12-.05-.22.04-.2-.12-.24-.19-.24-.18.01-.29.05-.48,0,.13.13.1.36.27.45Z" fill="#fff"/>
      <path d="M68.49,14.43c-.71,0-.98.2-1.37.49v2.3s1.68-.58,2.59-2.2c-.21-.31-.52-.59-1.22-.59ZM69.07,15.36l-.21-.24-.36.32.15.17s.15-.07.29.08c-.1.09-.28.24-.38.33-.13-.16-.04-.29-.04-.29l-.15-.17-.44.39-.14-.17.45-.38-.16-.19s-.06.05-.15.13c-.13-.15-.23-.34-.14-.59.26-.06.44.07.57.22-.09.08-.15.13-.15.13l.16.19.37-.31-.21-.24c.19-.02.36.04.45.15.09.11.14.28.09.47Z" fill="#fff"/>
      <path d="M64.16,12.23c.05.17.09.35.1.55,0,.24-.17.52-.35.83-.02.04-.04.07-.06.11.53,2.62,3.07,3.49,3.07,3.49v-4.97s-1.91,0-2.75,0ZM66.06,15.34c-.13.03-.33.04-.46.04s-.33-.01-.46-.04c.01-.05.03-.13.05-.2-.09,0-.19-.04-.27-.07.04-.14.1-.27.15-.46.17.04.34.05.53.05s.36-.01.53-.05c.05.18.11.32.15.46-.08.03-.17.06-.27.07.02.08.04.15.05.2ZM65.02,14.42c0-.05,0-.12,0-.17.09-.03.47-.05.58-.05s.48.02.58.05c.01.05.01.12,0,.17-.14.04-.39.06-.58.06s-.44-.02-.58-.06ZM66.43,13.27c-.14.34-.28.68-.32.79-.07-.01-.15-.02-.24-.02.1-.29.21-.71.31-.98.07-.18.38-.1.25.21ZM65.6,12.78c.02-.16.46-.19.38.16-.08.34-.19.75-.27,1.09-.04,0-.07,0-.11,0s-.08,0-.11,0c-.08-.35-.18-.75-.27-1.09-.08-.34.36-.31.38-.16ZM65.02,13.06c.1.26.21.68.31.98-.08,0-.16,0-.24.02-.04-.1-.18-.45-.32-.79-.13-.31.18-.39.25-.21Z" fill="#fff"/>
      <path d="M69.69,12.72v-.12s.12,0,.12,0c.17,0,.25-.16.29-.35-.65,0-2.98,0-2.98,0v2.4c.19-.14.38-.26.62-.34v-.53h.24c.01-.58.15-1,.42-1.28l.08-.08.08.08c.27.28.41.7.42,1.28h.25v.56c.27.11.45.28.58.46.22-.45.38-.97.44-1.56-.01,0-.02,0-.04,0-.25,0-.52-.18-.54-.52Z" fill="#fff"/>
      <path d="M74.28,18.21c-.15.05-.33.07-.6.07h-.34c-1.16-.02-2.36-.37-3.09-1.12,1.01-1.02-.18-1.86-.82-.99-.2.27-.36.46-.5.72-.11.21-.03.42.22.75.14.18.48.46.76.64h-5.81c.28-.18.62-.46.76-.64.25-.33.34-.54.22-.75-.14-.26-.3-.45-.5-.72-.64-.87-1.83-.03-.82.99-.73.75-1.93,1.09-3.09,1.12h-.32c-.27,0-.45-.03-.6-.07-.24-.06-.29.05-.16.46.09.28.16.73.19,1.04h14.47c.03-.31.1-.76.19-1.04.13-.41.08-.52-.17-.46ZM69.76,16.2c.19-.25.47-.18.58.03.12.23-.06.5-.29.72-.33-.36-.37-.64-.29-.75ZM69.27,17.39c-.12-.17-.16-.26-.1-.42.06-.15.18-.29.31-.48.2.79,1.39,1.54,2.27,1.79h-1.4c-.36-.2-.82-.52-1.09-.89ZM63.69,16.23c.11-.21.39-.28.58-.03.08.11.05.39-.28.75-.24-.22-.42-.5-.29-.72ZM64.54,16.49c.13.19.25.33.31.48.06.16.02.26-.1.42-.27.37-.72.69-1.09.89h-1.4c.88-.25,2.07-1,2.27-1.79ZM74.01,19.48h-13.96c-.06-.44-.15-.73-.22-.97h14.41c-.08.24-.16.53-.22.97Z" fill="#fff"/>
      <path d="M67.94,7.25s-.08.02-.11.05c-.05,0-.1-.02-.15-.02v-.28c.05-.02.09-.07.09-.13,0-.08-.06-.14-.14-.14s-.14.06-.14.14c0,.05.03.1.07.12v.27s-.1,0-.15-.01c-.02-.05-.07-.08-.12-.08-.08,0-.14.06-.14.14s.06.14.14.14c.05,0,.09-.02.11-.06.05,0,.11.01.16.02v.4s-.08.07-.08.12c0,.08.06.14.14.14s.14-.06.14-.14c0-.06-.03-.1-.08-.12v-.39c.05,0,.09.01.13.02.02.05.07.09.13.09.08,0,.14-.06.14-.14s-.06-.14-.14-.14Z" fill="#fff"/>
      <path d="M66.75,7.17c-.06,0-.11.03-.13.08-.05,0-.1,0-.14.01v-.27s.07-.07.07-.12c0-.08-.06-.14-.14-.14s-.14.06-.14.14c0,.06.03.11.08.13v.28s-.1.01-.15.02c-.02-.03-.06-.05-.11-.05-.08,0-.14.06-.14.14s.06.14.14.14c.06,0,.11-.04.13-.09.04,0,.08-.01.13-.02v.39s-.08.07-.08.12c0,.08.06.14.14.14s.14-.06.14-.14c0-.05-.03-.1-.07-.12v-.4s.1-.01.15-.02c.02.04.07.06.12.06.08,0,.14-.06.14-.14s-.06-.14-.14-.14Z" fill="#fff"/>
      <path d="M70.15,11.86c0-.27-.04-.48-.13-.57-.03-.03-.06-.04-.12-.04,0,0,0,0,0,0l-.24.03.13-.2c.13-.2.31-.32.5-.33v-1.79h-6.5v2s.05.03.07.04l.02.02c.18.15.25.25.19.75,0,.06.03.18.06.3h6.03c0-.07,0-.13.01-.19ZM65.52,11.06c.03.14.06.22.13.34-.24.14-.85.5-1.31.09v-1.21c.35-.2.54-.35.72-.64-.14-.07-.3-.19-.43-.36.67.19,1.01.29,1.8,0-.13.2-.32.33-.48.43.18.29.36.63.42.9-.24-.02-.5.04-.7.21-.3.01-.67.11-.88-.56-.11.05-.21.12-.21.12.12.44.34.74.93.67ZM66.56,11.26c-.06.09-.44.21-.54.15-.16-.1-.24-.3-.2-.39.05-.12.46-.23.6-.19.13.04.19.36.14.43ZM69.29,9.83c-.12-.03-.63-.06-.8.32-.1,0-.2-.04-.26-.1-.07.09-.17.14-.31.18.12.25.38.21.53.09,0,.03,0,.07,0,.11,0,.62.66.78,1.07.54-.07.2-.04.45,0,.63h-1.6c.03-.17.24-.37.42-.49l-.14-.22c-.17.08-.34.14-.52.2-.44.11-.42-.2.04-.33v-.12h-.29c.07-.32.68-.71.95-.81-.01-.34.43-.45.79-.46.44-.01.55.47.55.61,0,.2-.05.63-.3.77-.36.2-.66-.07-.66-.32,0-.27.19-.42.51-.39.32.04.3-.14.05-.21Z" fill="#fff"/>
      <path d="M78.01,7.48c-.07.02-.23.07-.34.08.21-.2.33-.45.33-.65-.1.03-.28.1-.44.13.32-.27.5-.59.42-1.01-.1.05-.24.13-.38.19.28-.43.28-.81.16-1.04-.13.12-.28.25-.44.35.1-.5.1-.82-.11-1.04-.21.4-.4.7-.7,1.06.02-.33-.01-.74-.23-.96,0,0-.06.46-.22.61-.04-.45-.18-.7-.38-.94,0,0-.01.47-.14.76-.11-.39-.31-.7-.57-.99.02.87-.22,2.5-.92,3.6-.08.65-.15,1.63-1.21,2.21-.15-.11-.42-.25-.8-.22-.1-.49.54-.94,1.1-1.29.56-.36.8-.67.79-1.15-.01-.53-.37-.74-.74-.76-.52-.02-.95.45-1.04.65-.15.07-.6.21-.78.26-.2.05-.43.14-.58.26.09.05.33.07.43.06.18-.03.74-.13,1.28-.2.2.11.51.28.18.52-.46.29-.65.37-1.3.71-1.02.54-.69,1.88-.44,1.98,0,.45.41,1.28.68,1.56.12.57-.04,1.42-.21,1.78-.14-.35-.39-1.15-.55-1.62.17-.89-.1-1.28-.29-1.43-.01,0-.02-.01-.04-.02v-2.22h-1.73c-.02-.18-.09-.31-.21-.35-.06-.4-.18-1.31-.25-1.98.75.67.34,1.78,1.24,2.19.34-.39.35-.53.29-.9.34-.09.59-.37.68-.59-.32.15-.83-.12-.97-.33.56-.02,1.07-.44,1.6-.99.47-.49,1.1-.42,1.05-.03.33-.05.46-.5.35-.78.48-.15.85-.5.91-1.06-.64.32-1.45-.21-2.06.44,0-.86-.03-1.57-.04-1.79.03,0,.07.02.1.03.62.22.76.96,2.04.12-.68.08-.72-.5-1.03-.51.47-.27.5-.88.5-.88-.4.32-1.32.34-1.5.44-.24.14-.54.32-.74.43-.53.29-.16,1.86-.21,2.44-.29-.86-.87-.73-1.17-1.22-.23.41.01,1.1.11,1.29-.33.27-.24.76-.16.9.28-.2.72-.15.85.19-.36.22-.95.26-1.37-.12,0-.12-.04-.25-.18-.35.03-.17,0-.33-.08-.47h0c.45-.63.48-1.85.85-2.2.03.43.26.78.48.83-.18-.29-.18-.88-.17-1.15,0-.12-.22-.22-.28-.22-.1,0-.22.2-.34.32-.11-.59-.05-.85,0-1.11.25.45.59.55.77.53-.6-.48-.5-.92-.68-.94-.1-.01-.18,0-.23,0-.21,0-.24.41-.27.6-.14-.25-.27-.47-.5-.76-.22-.57-.5-.43-.77-.69.21.33.04.53.54.76.13.12.28.32.38.47-.08.11-.14.17-.22.25-.06.09-.09.45-.29.71.29-.12.4-.3.5-.47.9.68.17,2.42-.04,2.8-.2-.13-.45-.21-.68-.25l-.02-.08-.21-.69h.1c.11,0,.14-.08.12-.14l.62.19.28.08-.17-.23-.29-.4.29-.4.17-.23-.28.08-.56.17c-.04-.13-.14-.19-.26-.2l.19-.64.08-.27-.23.17-.4.29-.4-.29-.23-.17.08.27.19.64c-.11.02-.22.08-.26.2l-.56-.17-.27-.08.17.23.29.4-.29.4-.17.23.27-.08.63-.19c-.02.06,0,.14.12.14h.1l-.21.69-.02.08c-.24.04-.5.12-.7.26-.61-1.18-.44-2.37.07-2.77,0,.25.21.59.31.66-.07-.26.05-.72-.08-.83-.09-.08-.24-.12-.39-.12.1-.17.25-.38.48-.7.36-.17.46-.59.55-.8-.39.14-.67.34-.74.67-.14.18-.29.4-.46.65,0-.31-.16-.41-.38-.43-.66.14-.61.61-1.17.94.38.13.99-.71,1.19-.62.03.52-.09.92-.09,1.21-.1-.11-.15-.18-.23-.2-.08-.01-.3,0-.45.17-.04.26-.03.75-.28,1.34.37-.34.54-.99.6-1.18.09.13.2.41.22.65.04.47.33,1.25.58,1.63-.07.13-.09.28-.07.44-.18.13-.2.31-.16.44-.35.18-.78.33-1,.4-.09-.73.6-.7.66-.5.29-.34.09-.83-.12-.88.22-.58,0-.94-.18-1.15-.04.62-.73.72-.81,1.19-.03-.38-.05-1.39-.08-1.89-.05-.92-1.21-1.24-1.39-1.24-.76.04-.83-.06-.81-.42-.38.44-.25.83.07,1.01-.04.26-.46.47-.72.53.62.57,1.33.23,1.67-.09.03-.02.05-.04.07-.07.12.22.21.62.21.84-.58-.03-.68.42-.68.58.73-.3.81,1.1,1,1.33-.19-.01-.52-.45-1-.48-.59-.04-.79.28-1.03.26.04.41.55.65.87.7-.17.42-.02.71.33.82,0-.39.49-.51,1.02-.2.63.37.96.4,1.46.24-.08.18-.31.2-.59.48-.39.39-.4.89-.84,1.08.52.25,1.29-.1,1.4-.29.22.13.49.05.57-.08-.29-.65.08-1.08.34-1.19-.07.62-.16,1.32-.21,1.66-.12.05-.19.17-.21.35h-1.73v2.23c-.09-.04-.18-.07-.27-.14-.15-.1-.19-.25-.37-.45.04-.42.34-.94.56-1.05.03-.02.02-.67.02-.67,0,0,.15,0,.13-.01-.2-.12-.44-.03-.61.17-.17.14-.55.39-.82.48-.36-.3-.92-.57-1.33-.98,0,0,.54,0,.79-.11.07-.04.24-.32.17-.58-.08-.03-.21-.09-.32-.16-.15-.08-.29-.18-.36-.23-.24-.18-.33-.33-.74-.44.03-.19.07-.14.25-.26.23-.15.35-.34.45-.52.07-.14,0-.44-.19-.06-.06.13-.24.31-.44.36.02-.12.02-.18.02-.25.59-.42.54-.79.49-1.14-.02-.2-.23-.29-.22-.08,0,.14.13.53-.28.76,0-.17-.06-.25-.09-.34.36-.48.21-.94.06-1.15-.1-.13-.34-.18-.23.03.09.17.23.65-.04.84-.09-.12-.2-.16-.24-.32.03-.52,0-.83-.07-1.02-.06-.17-.23-.28-.21-.03.01.29.04.65.01.67-.03.02-.41-.33-.57-.44-.16-.11-.34-.07-.16.15.16.19.65.55.59.67-.04.07-.39-.22-.57-.28-.18-.06-.24.03-.09.16.25.21.42.34.83.48.41.14.62.71.49,1.52,0,.04-.08.03-.12.02-.02-.31-.07-.68-.15-.84-.1-.21-.29-.22-.22.07.06.23.09.48.05.79-.34-.06-.47-.15-.61-.23-.02-.16.07-.41.08-.65.01-.23-.12-.37-.2-.08-.07.27-.12.41-.17.6-.1-.03-.2-.08-.25-.13-.02-.03,0-.33-.02-.56-.02-.25-.12-.25-.2-.02-.03.1-.06.24-.07.4-.12-.07-.2-.21-.21-.32.02-.26.06-.54.09-.72.02-.12-.06-.38-.16-.07-.07.22-.09.41-.13.56-.09,0-.2-.51-.26-.83-.03-.15-.15-.31-.17.01-.02.36.05.72.14.88-.17-.02-.34-.33-.46-.51-.11-.16-.16,0-.15.07.1.64.61.87.84.91.36.51,1.04.73,1.62.98-.75,0-.95.29-1.29.1.02.28.16.41.29.48.1.04.19.06.24.07.06.34.39.33.67.34-.07.67,0,1.55.6,2.21-.02.34-.04.79-.04,1.08-.48.45-.91,1.38-1.08,1.9-.13.39-.32.69-.61.83.24.26.6.13.8-.01.01.23.07.39.1.52-.14.21-.23.35-.22.6-.16.04-.26.14-.35.25-.05.07,0,.38.07.5.19.43.04,1.4,0,1.69.08,0,.23,0,.26-.11.05.04.16.13.22.32-.01.08-.06.38.09.42.12.03.66.01.74-.08-.05-.06-.15-.21-.21-.35,0-.15-.01-.33-.05-.4-.06-.11-.22-.36-.32-.46-.02-.18-.04-.97.04-1.27.14-.1,1.09-.8,1.29-1.48.17.06.12.53.12,1.14,0,.16.2.25.32.26.26.03.62.28,1.03.88.08-.09.18-.17.18-.17.05.07.12.25.15.36.04.08.38.13.63.06.08-.03.13-.04.19-.13-.32-.56-.52-.93-.93-1.25-.19-.14-.45-.22-.66-.35.14-.27.54-1.53.3-1.99-.08-.15-.38-.3-.74-.24.3-.37.92-1.09,1-1.31.07.08.44.03.71.13.1.04.38.4.39.52.02.22.04.49-.12,1.1.11-.02.09-.02.2-.07.02.16-.03.29-.17.54.04.22.13.56.24.62.02-.06.06-.13.1-.2.01.05.02.11.04.16.02.09.05.18.08.26.03.09.07.19.1.28.04.1.09.2.13.3.05.1.11.21.16.31.06.11.13.21.2.31.08.11.16.21.24.31.09.11.18.21.28.31.1.11.21.21.33.31.12.1.25.2.38.29.14.1.28.19.43.28.16.09.32.18.49.26.18.09.36.17.54.24,0,0,0,0,0,0,0,0,.03-.01.04-.02.02,0,.03-.01.05-.02.03-.01.06-.02.09-.04.18-.07.35-.16.52-.25.16-.08.31-.17.46-.27.14-.09.28-.18.41-.28.12-.09.24-.19.36-.3.11-.1.21-.2.31-.31.09-.1.18-.2.27-.31.08-.1.16-.21.23-.31.07-.1.13-.2.19-.31.06-.1.11-.2.16-.3.04-.1.09-.19.12-.29.04-.09.07-.18.1-.28.03-.08.05-.17.07-.26.02-.08.04-.15.05-.23.01-.07.03-.13.04-.2,0-.06.02-.11.02-.17,0-.09.01-.18.02-.27.06.18.2.6.34,1,.1.28.19.53.25.67.07.15.57.17.62,0,.08-.23.14-.4.27-.67h0c.1-.2.23-.46.43-.85.13.23.31.6.41.85.05.11.08.21.09.25.04.38.02,1.74-.09,2.55-1.12-.3-1.43.24-1.33.65.16-.18.37-.15.5-.06-.03.3.05.51.35.6.32-.85,1.47-.66,1.58-.59,0-.16.16-.57-.43-.66.02-.73.1-1.63.12-1.82.03-.19.05-.3-.04-.6-.03-.09-.06-.2-.09-.32-.08-.3-.16-.68-.16-1.1.1.1.35.18.52.15.13.55.32.39.42.62.05.12.06.23.08.33.01.1.03.18.08.25.4.01.73-.08.97-.25.07-.05.14-.11.19-.18-.1-.59-.26-.88-.57-1.24-.08-.48-.31-.92-.61-1.31.39-.13.78-.44.99-.66.19-.01.4-.17.42-.47.11-.01.2-.02.29-.04,0-.08-.03-.21-.04-.29.14,0,.28,0,.41-.02-.04-.11-.09-.23-.13-.31.14,0,.32-.01.46-.02-.08-.14-.13-.27-.18-.39.16-.02.42-.06.63-.11-.07-.07-.14-.14-.26-.25.54-.16.78-.54.81-.71-.08,0-.25.04-.34.03.3-.18.51-.42.54-.69ZM67.65,2.86l.33-.1-.16.22-.04.06.04.06.16.22-.42-.13c.04-.09.07-.18.09-.33ZM66.06,3.31l.16-.22.04-.06-.04-.06-.16-.22.33.1c.02.14.05.24.09.33l-.42.13ZM68.34,8.33c-.12.02-.26.08-.4.17-.33.22-.71.23-.92-.16-.21.39-.59.38-.92.16-.13-.09-.27-.15-.4-.17.06-.39.15-1.12.22-1.73.43-.2.96-.24,1.1.26.13-.5.66-.45,1.09-.26.07.62.16,1.35.22,1.73ZM67.02,5.6c.42,0,.77.11,1.02.21,0,.08,0,.16.02.26-.28-.08-.66-.14-1.04-.14s-.76.06-1.04.14c0-.1.01-.18.02-.26.25-.09.6-.21,1.02-.21ZM66.26,5.19c.19-.05.39-.08.58-.09l.14.27c-.18,0-.34.02-.49.05l-.23-.23ZM67.62,5.15c.2.04.4.1.57.17l.08.32c-.13-.05-.3-.12-.51-.18l-.14-.31ZM71.7,1.89c.22,0,.61-.02.84-.13-.24.3-.27.4-.66.45.51.05.72.5.97.57-.85.26-.94-.58-1.71-.53.26-.19.42-.27.56-.35ZM69.52,5.22c.03-.27.19-.46.28-.49-.23-.26-.28-.6-.3-.84.38.16.94.61,1.03,1.37l.25-.17c-.07-1.33-.06-1.33-.07-2.24,0-.13,0-.42.41-.39.02.34.07,1.23.05,2.48h.14c.13-.35.59-.75,1.12-.72.37.02.49.02.7-.08-.17.42-.8.6-.96.63.25.21.17.5.11.57-.22-.38-.94-.25-1.64.54-.05.06-.12.13-.19.2.05-.95-.72-.96-.95-.87ZM68.69,5.85c.33.33,1,.45,1.52.16,0,.09-.02.19-.06.3-.29.15-.66.24-1.09.09.06.43.55.75,1.03.88-.16.12-.36.17-.5.16.09.25.14.58-.05.85-.24-.16-.36-.31-.45-.92-.08-.56-.46-1.11-.78-1.29,0-.06-.01-.12-.01-.17.16.06.31.03.4-.06ZM67.38,3.2h-.26l.03-.46c.39-.17.36.19.23.46ZM67.02,4.03l.31.23c-.13-.01-.24-.01-.31-.01s-.18,0-.31.01l.31-.23ZM66.74,3.99l.14-.47h.27l.14.47-.22-.16-.06-.04-.06.04-.22.16ZM66.96,2.2l.06.04.06-.04.23-.16-.13.44s0,0-.01,0c-.02-.05-.08-.09-.14-.09s-.12.04-.14.09c0,0,0,0-.01,0l-.13-.44.23.16ZM66.67,3.2c-.13-.28-.16-.64.23-.46l.03.46h-.26ZM65.81,4.9c.22-.26.79-.36,1.21-.36s.99.09,1.21.36c.05.06.08.14.09.22-.38-.17-.86-.27-1.3-.27s-.92.1-1.3.27c0-.08.04-.16.09-.22ZM65.6,5.45s.03-.02.05-.03l.22.18s-.09.04-.13.05l-.07.03c-.09.04-.16,0-.18-.04-.02-.05,0-.13.11-.2ZM61.39,2.83c.43-.21.39-.53.64-.69-.16-.02-.47-.09-.47-.32.43.21.57-.18,1.38.34-.54.17-.95.83-1.55.66ZM63.11,6.12c-.26-.11-.66-.17-.88.14-.12-.21.06-.53.17-.62-.57,0-.89-.16-.97-.33.21-.12.74-.31,1.17,0,.3.22.45.33.8.44.13-.13.08-.07.12-.11-.29-.2-.42-1.75-.99-1.8.08-.2.38-.18.61-.12.02-.35-.13-.92-.34-1.25.33-.17.56.01.67.42.12.44-.02,1.53.26,2.51l.18-.16c-.09-.57.54-.78.68-1.07.05.38-.03.56-.13.7.23.03.33.25.29.41-.55-.08-.87.47-.74.91-.41.09-.68.02-.91-.07ZM65.06,7.78c-.07.03-.28.02-.34-.12-.05.23-.51.49-.85.46.19-.2.31-.66.68-.9.37-.24.53-.41.66-.82-.17.08-1.05.31-1.3.03.53-.08,1.14-.35,1.5-.56.09.06.22.09.36.03-.01.15-.03.34-.05.55-.44.1-.83.67-.65,1.32ZM70.41,13.39c0,.06-.01.11-.02.17,0,.07-.02.13-.03.2-.02.08-.03.15-.05.23-.02.08-.05.17-.07.25-.03.09-.06.18-.1.27-.04.1-.08.19-.12.28-.05.1-.1.2-.15.3-.06.1-.12.2-.19.3-.07.11-.14.21-.22.31-.08.1-.17.21-.26.31-.1.1-.2.21-.31.3-.11.1-.23.2-.35.29-.13.1-.26.19-.4.28-.15.09-.3.18-.46.26-.16.09-.34.17-.51.24l-.09.04-.04.02h0c-.17-.06-.35-.14-.51-.22-.16-.08-.33-.17-.48-.26-.15-.09-.29-.18-.42-.28-.13-.09-.25-.19-.37-.29-.11-.1-.22-.2-.32-.3-.1-.1-.19-.2-.28-.31-.08-.1-.16-.2-.23-.31-.07-.1-.13-.2-.2-.31-.06-.1-.11-.2-.16-.3-.05-.09-.09-.19-.13-.29-.04-.09-.07-.18-.1-.28-.03-.08-.05-.17-.08-.26-.02-.08-.04-.16-.06-.23,0-.01,0-.03,0-.04.2-.35.48-.74.47-.99-.02-.46-.23-.85-.21-1.05.06-.5-.02-.54-.17-.66-.04-.04-.11-.06-.16-.09v-2.18h1.78c.36,0,1.23.02,1.63.02s1.26-.01,1.62-.02h1.78v2.07c-.18-.05-.39.02-.54.26.29-.03.39.35.39.74,0,.47-.13.85-.45.85.02.37.38.48.6.35v.04c0,.09,0,.18-.02.27Z" fill="#fff"/>
    </g>
  </g>
  <rect x="50.7" y="2.58" width=".5" height="17.15" fill="#fff"/>
</svg>