<svg xmlns="http://www.w3.org/2000/svg" viewBox="0 0 600 900" width="600" height="900" role="img" aria-label="A three by three grid of labelled zones used to show which part of an image survives a crop">
  <title>Image position demo sheet, portrait</title>

  <!--
    The portrait twin of image-position-demo.svg, 2:3 instead of 3:2. A wide
    crop of this one has plenty of height to spare, so the vertical half of each
    position name has something to do.
  -->

  <g font-family="'Helvetica Neue', Arial, sans-serif" font-weight="700" text-anchor="middle">
    <!-- Top row -->
    <rect x="0" y="0" width="200" height="300" fill="#7ca3d4" />
    <text x="100" y="140" font-size="28" fill="#0b1c30">LEFT</text>
    <text x="100" y="176" font-size="28" fill="#0b1c30">TOP</text>

    <rect x="200" y="0" width="200" height="300" fill="#a8c3e6" />
    <text x="300" y="162" font-size="32" fill="#0b1c30">TOP</text>

    <rect x="400" y="0" width="200" height="300" fill="#7ca3d4" />
    <text x="500" y="140" font-size="28" fill="#0b1c30">RIGHT</text>
    <text x="500" y="176" font-size="28" fill="#0b1c30">TOP</text>

    <!-- Middle row -->
    <rect x="0" y="300" width="200" height="300" fill="#c9dcb4" />
    <text x="100" y="462" font-size="32" fill="#1b2b12">LEFT</text>

    <rect x="200" y="300" width="200" height="300" fill="#f0ead2" />
    <circle cx="300" cy="450" r="70" fill="none" stroke="#2b2b2b" stroke-width="4" />
    <circle cx="300" cy="450" r="34" fill="none" stroke="#2b2b2b" stroke-width="4" />
    <circle cx="300" cy="450" r="6" fill="#2b2b2b" />
    <text x="300" y="562" font-size="26" fill="#2b2b2b">CENTER</text>

    <rect x="400" y="300" width="200" height="300" fill="#c9dcb4" />
    <text x="500" y="462" font-size="32" fill="#1b2b12">RIGHT</text>

    <!-- Bottom row -->
    <rect x="0" y="600" width="200" height="300" fill="#e8b98c" />
    <text x="100" y="740" font-size="28" fill="#31200d">LEFT</text>
    <text x="100" y="776" font-size="26" fill="#31200d">BOTTOM</text>

    <rect x="200" y="600" width="200" height="300" fill="#f2d3b3" />
    <text x="300" y="762" font-size="30" fill="#31200d">BOTTOM</text>

    <rect x="400" y="600" width="200" height="300" fill="#e8b98c" />
    <text x="500" y="740" font-size="28" fill="#31200d">RIGHT</text>
    <text x="500" y="776" font-size="26" fill="#31200d">BOTTOM</text>
  </g>

  <!-- Zone edges, drawn over the fills so they read as one grid. -->
  <g stroke="#2b2b2b" stroke-width="3" opacity="0.55">
    <path d="M200 0V900M400 0V900M0 300H600M0 600H600" />
  </g>
  <rect x="1.5" y="1.5" width="597" height="897" fill="none" stroke="#2b2b2b" stroke-width="3" />
</svg>
